<?xml version="1.0" encoding="UTF-8" standalone="no"?>
<!-- Created with Inkscape (http://www.inkscape.org/) -->

<svg
   width="175.67183mm"
   height="156.11708mm"
   viewBox="0 0 175.67183 156.11708"
   version="1.1"
   id="svg5"
   inkscape:version="1.1 (ce6663b3b7, 2021-05-25)"
   sodipodi:docname="logo-linux-inside.svg"
   xmlns:inkscape="http://www.inkscape.org/namespaces/inkscape"
   xmlns:sodipodi="http://sodipodi.sourceforge.net/DTD/sodipodi-0.dtd"
   xmlns="http://www.w3.org/2000/svg"
   xmlns:svg="http://www.w3.org/2000/svg">
  <sodipodi:namedview
     id="namedview7"
     pagecolor="#ffffff"
     bordercolor="#666666"
     borderopacity="1.0"
     inkscape:pageshadow="2"
     inkscape:pageopacity="0.0"
     inkscape:pagecheckerboard="0"
     inkscape:document-units="mm"
     showgrid="false"
     inkscape:zoom="0.69130191"
     inkscape:cx="500.50491"
     inkscape:cy="339.93831"
     inkscape:window-width="1157"
     inkscape:window-height="991"
     inkscape:window-x="26"
     inkscape:window-y="23"
     inkscape:window-maximized="0"
     inkscape:current-layer="layer1" />
  <defs
     id="defs2">
    <clipPath
       clipPathUnits="userSpaceOnUse"
       id="clipPath25">
      <path
         d="M 1275.59,208.648 C 571.102,208.648 0,316.109 0,448.648 0,514.859 142.457,574.801 372.898,618.23 364.859,595.719 360.602,572.199 360.602,547.988 v 0 0 c 0,-122.879 109.789,-137.777 265.636,-137.777 49.926,0 104.582,1.527 161.864,1.527 57.293,0 111.925,-1.527 161.859,-1.527 125.979,0 221.889,9.75 253.999,78.398 24.79,-1.879 49.83,-2.828 75.07,-2.828 25.25,0 50.3,0.949 75.09,2.828 32.11,-68.648 128.02,-78.398 254,-78.398 49.94,0 104.57,1.527 161.86,1.527 57.28,0 111.94,-1.527 161.86,-1.527 155.86,0 265.64,14.898 265.64,137.777 v 0 0 c 0,23.711 -4.08,46.75 -11.8,68.832 226.08,-43.3 365.5,-102.672 365.5,-168.172 0,-132.539 -571.1,-240 -1275.59,-240"
         id="path23" />
    </clipPath>
    <clipPath
       clipPathUnits="userSpaceOnUse"
       id="clipPath37">
      <path
         d="M 0,0 H 2551.18 V 2787.57 H 0 Z"
         id="path35" />
    </clipPath>
    <clipPath
       clipPathUnits="userSpaceOnUse"
       id="clipPath49">
      <path
         d="M 1776.04,2518.78 H 792.656 c 17.727,27.28 38.192,52.95 61.055,76.72 104.297,108.38 258.529,176.97 430.639,176.97 191.33,0 360.6,-84.79 463.69,-214.77 9.97,-12.57 19.31,-25.54 28,-38.92"
         id="path47" />
    </clipPath>
    <linearGradient
       x1="0"
       y1="0"
       x2="1"
       y2="0"
       gradientUnits="userSpaceOnUse"
       gradientTransform="matrix(-4.46e-5,-1020.73,-1020.73,4.46e-5,1284.35,2772.47)"
       spreadMethod="pad"
       id="linearGradient59">
      <stop
         style="stop-opacity:1;stop-color:#ffffff"
         offset="0"
         id="stop51" />
      <stop
         style="stop-opacity:1;stop-color:#7b7979"
         offset="0.40860962"
         id="stop53" />
      <stop
         style="stop-opacity:1;stop-color:#7b7979"
         offset="0.484848"
         id="stop55" />
      <stop
         style="stop-opacity:1;stop-color:#7b7979"
         offset="1"
         id="stop57" />
    </linearGradient>
    <clipPath
       clipPathUnits="userSpaceOnUse"
       id="clipPath69">
      <path
         d="M 0,0 H 2551.18 V 2787.57 H 0 Z"
         id="path67" />
    </clipPath>
    <clipPath
       clipPathUnits="userSpaceOnUse"
       id="clipPath79">
      <path
         d="M 303.691,1533.88 C 189.34,1436.44 71.3711,1335.89 78.8438,1263.86 c 1.8437,-5.64 4.3632,-10.58 7.9023,-14.41 36.5509,-39.54 41.3439,98.96 184.6799,202.29 51.562,37.17 260,182.5 241.664,283.33 -1.957,-0.2 -3.887,-0.6 -5.84,-0.84 -43.07,-63.55 -124.457,-132.95 -203.559,-200.35 z"
         id="path77" />
    </clipPath>
    <linearGradient
       x1="0"
       y1="0"
       x2="1"
       y2="0"
       gradientUnits="userSpaceOnUse"
       gradientTransform="matrix(52.8535,-52.8535,-52.8535,-52.8535,273.813,1518.35)"
       spreadMethod="pad"
       id="linearGradient89">
      <stop
         style="stop-opacity:1;stop-color:#ffffff"
         offset="0"
         id="stop81" />
      <stop
         style="stop-opacity:1;stop-color:#7b7979"
         offset="0.56183907"
         id="stop83" />
      <stop
         style="stop-opacity:1;stop-color:#7b7979"
         offset="0.666667"
         id="stop85" />
      <stop
         style="stop-opacity:1;stop-color:#7b7979"
         offset="1"
         id="stop87" />
    </linearGradient>
    <clipPath
       clipPathUnits="userSpaceOnUse"
       id="clipPath99">
      <path
         d="M 0,0 H 2551.18 V 2787.57 H 0 Z"
         id="path97" />
    </clipPath>
    <clipPath
       clipPathUnits="userSpaceOnUse"
       id="clipPath109">
      <path
         d="m 2254.38,1533.88 c 114.36,-97.44 232.33,-197.99 224.86,-270.02 -1.85,-5.64 -4.37,-10.58 -7.91,-14.41 -36.54,-39.54 -41.34,98.96 -184.68,202.29 -51.56,37.17 -260,182.5 -241.66,283.33 1.95,-0.2 3.89,-0.6 5.84,-0.84 43.07,-63.55 124.45,-132.95 203.55,-200.35 z"
         id="path107" />
    </clipPath>
    <linearGradient
       x1="0"
       y1="0"
       x2="1"
       y2="0"
       gradientUnits="userSpaceOnUse"
       gradientTransform="matrix(456.001,-456.001,-456.001,-456.001,2029.84,1719.92)"
       spreadMethod="pad"
       id="linearGradient119">
      <stop
         style="stop-opacity:1;stop-color:#ffffff"
         offset="0"
         id="stop111" />
      <stop
         style="stop-opacity:1;stop-color:#7b7979"
         offset="0.56183907"
         id="stop113" />
      <stop
         style="stop-opacity:1;stop-color:#7b7979"
         offset="0.666667"
         id="stop115" />
      <stop
         style="stop-opacity:1;stop-color:#7b7979"
         offset="1"
         id="stop117" />
    </linearGradient>
    <clipPath
       clipPathUnits="userSpaceOnUse"
       id="clipPath129">
      <path
         d="m 1279.04,500.781 v 0 0 c -23.44,0 -46.61,0.821 -69.5,2.418 3.98,13.051 6.06,27.91 6.06,44.789 v 0 0 c 0,162.242 -191.4,293.75 -427.498,293.75 -10.321,0 -20.563,-0.25 -30.696,-0.75 -59.918,192.382 -76.054,366.962 -71.808,518.592 H 1875.58 c 4.25,-151.66 -11.9,-326.32 -71.85,-518.74 -11.14,0.601 -22.39,0.898 -33.75,0.898 -236.09,0 -427.5,-131.508 -427.5,-293.75 v 0 0 c 0,-16.879 2.08,-31.738 6.06,-44.777 -22.87,-1.609 -46.06,-2.43 -69.5,-2.43 v 0 0 m 691.5,579.509 v 0 0 m 0,0.69 c 0,0.01 0,0.03 0,0.04 0,-0.01 0,-0.03 0,-0.04 m 0.01,0.69 c 0,0.03 0,0.05 0,0.08 0,-0.02 0,-0.05 0,-0.08 m 0.01,0.7 c 0,0.03 0,0.06 0,0.09 0,-0.03 0,-0.06 0,-0.09 m 0,0.7 c 0,0.04 0,0.09 0,0.13 0,-0.04 0,-0.09 0,-0.13 m 0.01,0.69 c 0,0.06 0,0.1 0,0.15 0,-0.05 0,-0.09 0,-0.15 m 0,0.7 c 0,0.06 0,0.12 0,0.18 0,-0.06 0,-0.12 0,-0.18 m 0,0.7 c 0,0.08 0,0.15 0,0.22 0,-0.07 0,-0.14 0,-0.22 m 0.01,0.7 c 0,0.1 0,0.18 0,0.28 0,-0.09 0,-0.19 0,-0.28 m 0,0.7 c 0,0.1 0,0.21 0,0.31 0,-0.1 0,-0.2 0,-0.31 m 0,0.71 c 0,0.12 0,0.24 0,0.37 0,-0.13 0,-0.25 0,-0.37 m 0,0.7 c 0,0.13 0,0.28 0,0.41 0,-0.13 0,-0.27 0,-0.41 m 0.01,0.71 c 0,0.14 0,0.3 0,0.44 0,-0.15 0,-0.29 0,-0.44 m 0,0.7 c 0,0.24 0,0.47 0,0.71 0,-0.23 0,-0.47 0,-0.71 m 0,1.3 c 0,0.06 0,0.11 0,0.17 0,-0.06 0,-0.11 0,-0.17 m -1380,0 c 0,0.06 0,0.11 0,0.17 0,-0.06 0,-0.11 0,-0.17 m 1380,0.61 c 0,0.05 0,0.13 0,0.17 0,-0.05 0,-0.11 0,-0.17 m -1380,0.02 c 0,0.06 0,0.09 0.004,0.14 -0.004,-0.04 -0.004,-0.09 -0.004,-0.14 m 1379.99,0.71 c 0,0.08 0,0.14 0,0.22 0,-0.08 0,-0.14 0,-0.22 m -1379.986,0 c 0,0.08 0,0.11 0,0.19 0,-0.06 0,-0.12 0,-0.19 m 1379.986,0.56 c 0,0.1 0,0.18 0,0.28 0,-0.11 0,-0.17 0,-0.28 m -1379.986,0.02 c 0,0.09 0,0.17 0,0.25 0,-0.08 0,-0.17 0,-0.25 m 1379.986,0.56 c 0,0.17 0,0.36 0,0.54 0,-0.19 0,-0.35 0,-0.54 m -1379.986,0.03 c 0.004,0.19 0.004,0.33 0.004,0.52 0,-0.17 0,-0.35 -0.004,-0.52 m 0.004,0.72 c 0,0.14 0,0.23 0.004,0.37 -0.004,-0.12 -0.004,-0.25 -0.004,-0.37 m 1379.982,0 c 0,0.13 0,0.26 0,0.38 0,-0.13 0,-0.24 0,-0.38 m 0,0.52 c -0.41,92.89 -13.94,182.07 -38.46,265.15 h 0.13 c 24.46,-83.1 37.92,-172.28 38.33,-265.15 m -1379.978,0.02 c 0.41,92.84 13.875,182.06 38.328,265.13 h 0.129 c -24.524,-83.07 -38.047,-172.25 -38.457,-265.13"
         id="path127" />
    </clipPath>
    <linearGradient
       x1="0"
       y1="0"
       x2="1"
       y2="0"
       gradientUnits="userSpaceOnUse"
       gradientTransform="matrix(-6.15e-5,-1407.11,-1407.11,6.15e-5,1280.59,1907.89)"
       spreadMethod="pad"
       id="linearGradient137">
      <stop
         style="stop-opacity:1;stop-color:#ffffff"
         offset="0"
         id="stop131" />
      <stop
         style="stop-opacity:1;stop-color:#ffffff"
         offset="0.55254067"
         id="stop133" />
      <stop
         style="stop-opacity:1;stop-color:#a7a5a6"
         offset="1"
         id="stop135" />
    </linearGradient>
    <clipPath
       clipPathUnits="userSpaceOnUse"
       id="clipPath147">
      <path
         d="m 618.008,817.57 c -64.586,80.539 -111.778,173.77 -136.746,275.56 33.445,-39.63 72.148,-76.54 115.25,-110.31 6.23,-56.011 17.261,-110.23 32.554,-162.082 -3.718,-1.019 -7.394,-2.078 -11.058,-3.168"
         id="path145" />
    </clipPath>
    <linearGradient
       x1="0"
       y1="0"
       x2="1"
       y2="0"
       gradientUnits="userSpaceOnUse"
       gradientTransform="matrix(-1.31e-5,298.779,298.779,1.31e-5,559.336,794.35)"
       spreadMethod="pad"
       id="linearGradient157">
      <stop
         style="stop-opacity:1;stop-color:#ffffff"
         offset="0"
         id="stop149" />
      <stop
         style="stop-opacity:1;stop-color:#7b7979"
         offset="0.56183907"
         id="stop151" />
      <stop
         style="stop-opacity:1;stop-color:#7b7979"
         offset="0.666667"
         id="stop153" />
      <stop
         style="stop-opacity:1;stop-color:#7b7979"
         offset="1"
         id="stop155" />
    </linearGradient>
    <clipPath
       clipPathUnits="userSpaceOnUse"
       id="clipPath167">
      <path
         d="m 1940.05,817.578 c -2.71,0.813 -5.44,1.594 -8.17,2.363 15.66,52.918 26.87,108.289 33.08,165.528 41.74,33.051 79.29,69.071 111.86,107.671 -24.98,-101.8 -72.18,-195.011 -136.77,-275.562"
         id="path165" />
    </clipPath>
    <linearGradient
       x1="0"
       y1="0"
       x2="1"
       y2="0"
       gradientUnits="userSpaceOnUse"
       gradientTransform="matrix(-1.28e-5,293.008,293.008,1.28e-5,2001.22,800.13)"
       spreadMethod="pad"
       id="linearGradient177">
      <stop
         style="stop-opacity:1;stop-color:#ffffff"
         offset="0"
         id="stop169" />
      <stop
         style="stop-opacity:1;stop-color:#7b7979"
         offset="0.56183907"
         id="stop171" />
      <stop
         style="stop-opacity:1;stop-color:#7b7979"
         offset="0.666667"
         id="stop173" />
      <stop
         style="stop-opacity:1;stop-color:#7b7979"
         offset="1"
         id="stop175" />
    </linearGradient>
    <clipPath
       clipPathUnits="userSpaceOnUse"
       id="clipPath187">
      <path
         d="m 1936.78,2351.24 c -26.07,57.76 -62.86,114.4 -109.18,167.54 h 109.18 v -167.54 m -1315.198,0.63 v 166.91 h 108.895 c -46.149,-52.95 -82.844,-109.37 -108.895,-166.91"
         id="path185" />
    </clipPath>
    <clipPath
       clipPathUnits="userSpaceOnUse"
       id="clipPath199">
      <path
         d="m 1936.78,1359.58 h -4.53 c -54.76,186.03 -164.64,341.44 -306.43,438.74 120.92,38.13 207.66,141.81 207.66,263.74 0,17.32 -1.76,34.29 -5.11,50.74 16.07,47.22 24.73,97.36 24.73,149.3 0,93.58 -28.08,181.28 -77.06,256.68 h 11.02 c 71.3,-76.33 124.78,-164.68 149.72,-255.35 v -903.85 m -1307.85,0 h -7.348 v 904.88 c 25.063,90.31 78.406,178.27 149.441,254.32 h 21.633 c -48.984,-75.4 -77.054,-163.1 -77.054,-256.68 0,-48.38 7.503,-95.19 21.519,-139.54 -1.094,-12.9 -1.652,-26 -1.652,-39.26 0,-137.17 59.933,-257.23 149.515,-323.09 C 767.605,1662.69 677.016,1522.95 628.93,1359.58"
         id="path197" />
    </clipPath>
    <clipPath
       clipPathUnits="userSpaceOnUse"
       id="clipPath211">
      <path
         d="m 1936.78,2263.43 c -24.94,90.67 -78.42,179.02 -149.72,255.35 h 40.54 c 46.32,-53.14 83.11,-109.78 109.18,-167.54 v -87.81 m -1315.198,1.03 v 87.41 c 26.051,57.54 62.746,113.96 108.895,166.91 h 40.546 C 699.988,2442.73 646.645,2354.77 621.582,2264.46"
         id="path209" />
    </clipPath>
    <clipPath
       clipPathUnits="userSpaceOnUse"
       id="clipPath223">
      <path
         d="m 1828.37,2112.8 c -26.49,130.06 -153,228.61 -305.04,228.61 -81.56,0 -155.72,-28.4 -211.09,-74.76 -52.63,115.3 -153.3,193.32 -268.9,193.32 -159.207,0 -290.176,-147.83 -306.219,-337.41 -14.016,44.35 -21.519,91.16 -21.519,139.54 0,93.58 28.07,181.28 77.054,256.68 h 983.384 c 48.98,-75.4 77.06,-163.1 77.06,-256.68 0,-51.94 -8.66,-102.08 -24.73,-149.3"
         id="path221" />
    </clipPath>
    <clipPath
       clipPathUnits="userSpaceOnUse"
       id="clipPath235">
      <path
         d="m 884.984,1760.21 c -89.582,65.86 -149.515,185.92 -149.515,323.09 0,13.26 0.558,26.36 1.652,39.26 15.059,-47.64 37.625,-92.43 66.492,-133.3 21.914,-83.69 72.278,-151.78 137.184,-187.24 -19.207,-12.91 -37.813,-26.85 -55.813,-41.81 m 740.836,38.11 c -14.63,10.04 -29.59,19.46 -44.87,28.23 32.39,17.8 62.62,38.41 90.31,61.48 20.88,14.42 39.08,31.81 53.84,51.49 46.04,50.6 81.48,109.27 103.27,173.28 3.35,-16.45 5.11,-33.42 5.11,-50.74 0,-121.93 -86.74,-225.61 -207.66,-263.74"
         id="path233" />
    </clipPath>
    <clipPath
       clipPathUnits="userSpaceOnUse"
       id="clipPath247">
      <path
         d="m 1580.95,1826.55 c -10.73,6.16 -21.57,11.98 -32.6,17.49 45.95,4.23 88.14,19.98 122.91,43.99 -27.69,-23.07 -57.92,-43.68 -90.31,-61.48 m 144.15,112.97 c 26.24,34.98 41.56,77.15 41.56,122.54 v 0 0 c 0,121.04 -108.95,219.17 -243.33,219.17 -0.12,0 -0.24,0 -0.36,0 -0.03,0 -0.08,0 -0.12,0 -0.08,0 -0.16,0 -0.25,0 -0.04,0 -0.07,0 -0.12,0 -0.09,0 -0.17,0 -0.25,0 -0.04,0 -0.08,0 -0.12,0 -0.11,-0.01 -0.22,-0.01 -0.33,-0.01 -0.01,0 -0.02,0 -0.03,0 -0.11,0 -0.23,0 -0.35,0 -0.04,0 -0.08,0 -0.12,0 -0.08,0 -0.17,0 -0.25,0 -0.05,0 -0.08,0 -0.13,0 -0.08,-0.01 -0.15,-0.01 -0.23,-0.01 -0.05,0 -0.09,0 -0.13,0 -0.1,0 -0.2,0 -0.3,0 -0.02,0 -0.05,0 -0.06,0 -0.12,0 -0.24,0 -0.36,-0.01 -0.04,0 -0.08,0 -0.12,0 -0.08,0 -0.15,0 -0.23,0 -0.05,0 -0.1,0 -0.15,0 -0.07,0 -0.14,0 -0.22,0 -0.05,0 -0.09,-0.01 -0.14,-0.01 -0.08,0 -0.17,0 -0.25,0 -0.04,0 -0.07,0 -0.11,0 -0.11,-0.01 -0.22,-0.01 -0.33,-0.01 -0.06,0 -0.11,0 -0.17,0 -0.07,0 -0.13,0 -0.19,0 -0.06,-0.01 -0.12,-0.01 -0.17,-0.01 -0.06,0 -0.13,0 -0.19,0 -0.06,-0.01 -0.11,-0.01 -0.17,-0.01 -0.07,0 -0.13,0 -0.2,0 -0.06,0 -0.13,0 -0.2,-0.01 -0.09,0 -0.19,0 -0.28,0 -0.06,-0.01 -0.13,-0.01 -0.19,-0.01 -0.05,0 -0.11,0 -0.16,0 -0.06,0 -0.13,0 -0.2,-0.01 -0.05,0 -0.09,0 -0.14,0 -0.08,0 -0.14,0 -0.22,0 -0.03,-0.01 -0.06,-0.01 -0.1,-0.01 -0.27,-0.01 -0.53,-0.01 -0.81,-0.02 -0.02,0 -0.05,0 -0.07,-0.01 -0.08,0 -0.18,0 -0.26,0 -0.03,0 -0.05,0 -0.07,0 -0.09,-0.01 -0.18,-0.01 -0.27,-0.02 -0.02,0 -0.02,0 -0.04,0 -0.41,-0.01 -0.81,-0.02 -1.22,-0.04 h -0.01 c -103.34,-3.9 -190.02,-65.86 -220.88,-150.61 -17.54,139.76 -111.87,248.55 -228.63,259.83 v 0 c -0.48,0.05 -0.97,0.1 -1.44,0.14 h -0.01 c -0.12,0.01 -0.24,0.02 -0.36,0.03 v 0 c -0.49,0.04 -0.96,0.08 -1.45,0.12 v 0 c -0.12,0.01 -0.24,0.02 -0.35,0.03 h -0.02 c -0.12,0.01 -0.23,0.02 -0.35,0.03 h -0.02 c -0.35,0.03 -0.71,0.06 -1.07,0.08 h -0.01 c -0.12,0.01 -0.24,0.02 -0.35,0.03 h -0.02 c -0.12,0.01 -0.23,0.02 -0.35,0.02 0,0 -0.01,0 -0.02,0 -0.36,0.03 -0.71,0.05 -1.07,0.07 h -0.01 c -0.12,0.01 -0.22,0.02 -0.34,0.03 -0.02,0 -0.02,0 -0.04,0 -0.11,0.01 -0.22,0.01 -0.33,0.02 -0.02,0 -0.02,0 -0.03,0 -0.11,0.01 -0.24,0.02 -0.35,0.02 h -0.01 c -0.23,0.02 -0.47,0.03 -0.71,0.04 0,0 -0.01,0 -0.02,0 -0.11,0.01 -0.23,0.02 -0.34,0.02 -0.01,0 -0.01,0 -0.03,0 -0.11,0.01 -0.22,0.02 -0.33,0.02 -0.02,0 -0.02,0 -0.04,0 -0.12,0.01 -0.22,0.01 -0.34,0.02 h -0.02 c -0.35,0.02 -0.71,0.03 -1.06,0.05 -0.02,0 -0.02,0 -0.03,0 -0.11,0.01 -0.23,0.01 -0.34,0.02 -0.01,0 -0.02,0 -0.03,0 -0.11,0 -0.22,0.01 -0.33,0.01 -0.02,0 -0.04,0 -0.05,0 -0.11,0.01 -0.22,0.01 -0.33,0.02 -0.01,0 -0.02,0 -0.03,0 -0.11,0 -0.23,0 -0.34,0.01 h -0.01 c -0.11,0 -0.23,0.01 -0.34,0.01 -0.01,0 -0.02,0 -0.03,0 -0.11,0.01 -0.23,0.01 -0.34,0.02 -0.01,0 -0.02,0 -0.04,0 -0.11,0 -0.21,0 -0.32,0.01 -0.02,0 -0.04,0 -0.05,0 -0.11,0 -0.22,0.01 -0.33,0.01 -0.01,0 -0.02,0 -0.03,0 -0.23,0.01 -0.46,0.01 -0.7,0.02 h -0.02 c -0.11,0 -0.22,0.01 -0.33,0.01 -0.02,0 -0.04,0 -0.05,0 -0.11,0 -0.22,0 -0.33,0.01 -0.01,0 -0.03,0 -0.05,0 -0.1,0 -0.21,0 -0.32,0.01 -0.02,0 -0.02,0 -0.04,0 -0.11,0 -0.23,0 -0.34,0 -0.01,0 -0.01,0 -0.02,0 -0.11,0 -0.22,0.01 -0.33,0.01 -0.01,0 -0.02,0 -0.03,0 -0.11,0 -0.22,0.01 -0.33,0.01 -0.01,0 -0.04,0 -0.05,0 -0.11,0 -0.21,0 -0.32,0 -0.02,0 -0.03,0 -0.05,0 -0.11,0 -0.22,0 -0.33,0.01 -0.02,0 -0.03,0 -0.04,0 -0.11,0 -0.23,0 -0.34,0 0,0 -0.01,0 -0.02,0 -0.11,0 -0.24,0 -0.35,0 v 0 c -0.11,0 -0.23,0 -0.34,0.01 -0.02,0 -0.03,0 -0.04,0 -0.11,0 -0.23,0 -0.33,0 -0.01,0 -0.04,0 -0.05,0 -0.11,0 -0.22,0 -0.33,0 -0.01,0 -0.03,0 -0.05,0 -0.11,0 -0.21,0 -0.32,0 -0.02,0 -0.03,0 -0.04,0 -0.11,0 -0.23,0 -0.34,0 v 0 c -139.008,0 -251.68,-137.86 -251.68,-307.92 v 0 0 c 0,-32.8 4.192,-64.4 11.953,-94.04 -28.867,40.87 -51.433,85.66 -66.492,133.3 16.043,189.58 147.012,337.41 306.219,337.41 115.6,0 216.27,-78.02 268.9,-193.32 55.37,46.36 129.53,74.76 211.09,74.76 152.04,0 278.55,-98.55 305.04,-228.61 -21.79,-64.01 -57.23,-122.68 -103.27,-173.28 m -692.46,491.7 c -236.663,0 -259.999,-291.66 -259.999,-291.66 0,0 60.683,263.33 263.179,263.33 202.5,0 243.22,-178.64 243.22,-178.64 0,0 -9.73,206.97 -246.4,206.97 m 495.34,-130 c 166.66,0 229.66,-121.66 229.66,-121.66 0,0 -67.99,143.33 -229.66,143.33 -161.67,0 -229.66,-116.67 -229.66,-116.67 0,0 63,95 229.66,95"
         id="path245" />
    </clipPath>
    <clipPath
       clipPathUnits="userSpaceOnUse"
       id="clipPath259">
      <path
         d="m 1932.25,1359.58 h -0.13 c -17.78,60.24 -41.34,117.28 -69.86,170.18 6.69,-52.87 11.63,-109.69 13.32,-170.18 H 685.598 c 1.695,60.49 6.632,117.31 13.328,170.18 -28.528,-52.9 -52.09,-109.94 -69.867,-170.18 h -0.129 c 48.086,163.37 138.675,303.11 256.054,400.63 18,14.96 36.606,28.9 55.813,41.81 31.312,-17.11 66.023,-26.63 102.543,-26.63 7.76,0 15.43,0.43 23.01,1.27 l 175.54,-186.2 c 10.26,-10.88 23.71,-16.32 37.15,-16.32 13.45,0 26.89,5.44 37.16,16.32 l 183.75,194.91 c 9.99,10.58 15.4,24.82 15.39,39.43 0,4.43 -0.5,8.88 -1.52,13.28 -0.02,0.06 -0.03,0.13 -0.05,0.19 -0.39,1.69 -0.85,3.3 -1.36,4.84 3.62,-0.15 7.26,-0.22 10.92,-0.22 8.45,0 16.79,0.39 25.02,1.15 11.03,-5.51 21.87,-11.33 32.6,-17.49 15.28,-8.77 30.24,-18.19 44.87,-28.23 141.79,-97.3 251.67,-252.71 306.43,-438.74"
         id="path257" />
    </clipPath>
    <clipPath
       clipPathUnits="userSpaceOnUse"
       id="clipPath271">
      <path
         d="m 1341.52,1916.39 c -20.43,2.95 -41.49,4.81 -61.99,4.84 0,0 0,0 -0.01,0 -0.16,0 -0.32,0 -0.48,0 v 0 0 c -7.3,0 -14.67,-0.25 -22.05,-0.7 13.63,26.72 24,56.17 30.44,87.55 9.72,-34.57 28.57,-65.87 54.09,-91.69"
         id="path269" />
    </clipPath>
    <clipPath
       clipPathUnits="userSpaceOnUse"
       id="clipPath283">
      <path
         d="M 0,0 H 2551.18 V 2787.57 H 0 Z"
         id="path281" />
    </clipPath>
    <clipPath
       clipPathUnits="userSpaceOnUse"
       id="clipPath293">
      <path
         d="m 1523.07,1862.89 c -8.4,0.01 -16.68,0.43 -24.85,1.25 -0.04,0.04 -0.08,0.08 -0.13,0.12 8.22,-0.83 16.53,-1.36 24.98,-1.37 m 0.58,0 c 0.04,0 0.07,0 0.11,0 -0.04,0 -0.07,0 -0.11,0 m 0.34,0 c 0.04,0 0.07,0 0.11,0 -0.04,0 -0.08,0 -0.11,0 m 0.4,0 c 0,0 0.02,0 0.03,0 -0.01,0 -0.03,0 -0.03,0 m 0.35,0.01 c 0.03,0 0.07,0 0.11,0 -0.04,0 -0.07,0 -0.11,0 m 0.33,0 c 0.04,0 0.07,0 0.11,0 -0.03,0 -0.07,0 -0.11,0 m 0.36,0 c 0.03,0 0.05,0 0.08,0 -0.03,0 -0.05,0 -0.08,0 m 0.39,0.01 c 0.04,0 0.08,0 0.12,0 -0.04,0 -0.08,0 -0.12,0 m 0.32,0 c 0.04,0 0.1,0 0.15,0 -0.05,0 -0.11,0 -0.15,0 m 0.33,0 c 0.05,0 0.09,0 0.14,0 -0.05,0 -0.1,0 -0.14,0 m 0.43,0.01 c 0.05,0 0.09,0 0.13,0 -0.04,0 -0.08,0 -0.13,0 m 0.32,0 c 0.05,0 0.1,0.01 0.16,0.01 -0.06,0 -0.11,-0.01 -0.16,-0.01 m 0.32,0.01 c 0.05,0 0.11,0 0.16,0 -0.05,0 -0.11,0 -0.16,0 m 0.35,0 c 0.09,0 0.18,0.01 0.27,0.01 -0.09,0 -0.18,-0.01 -0.27,-0.01 m 0.4,0.01 c 0.06,0 0.14,0.01 0.2,0.01 -0.07,0 -0.13,-0.01 -0.2,-0.01 m 0.3,0.01 c 0.07,0 0.14,0 0.21,0 -0.07,0 -0.14,0 -0.21,0 m 0.27,0 c 0.17,0.01 0.32,0.01 0.49,0.01 -0.17,0 -0.32,0 -0.49,-0.01 m 0.5,0.01 c 0.08,0 0.16,0.01 0.24,0.01 -0.08,0 -0.16,-0.01 -0.24,-0.01 m 0.3,0.01 c 0.08,0 0.16,0.01 0.24,0.01 -0.08,0 -0.17,-0.01 -0.24,-0.01 m 0.25,0.01 c 90.96,2.36 168.41,53.49 200.67,125 -92.32,-36.84 -169.91,-50.93 -237,-50.93 -51.57,0 -96.94,8.32 -138.07,21.04 35.26,3.16 63.17,44.78 63.17,95.64 0,52.92 -30.22,95.83 -67.5,95.83 -13.07,0 -25.28,-5.28 -35.62,-14.42 32.68,73.63 113.22,125.88 207.22,126.09 -10.41,-0.03 -20.62,-0.73 -30.65,-1.98 86.35,-47.19 124.81,-156.07 131.2,-212.32 0.33,-2.9 0.63,-5.56 0.93,-8.2 l 120.93,45.89 c -12.17,95.74 -100.72,171.14 -209.85,176.32 117.58,-5.58 211.32,-92.65 211.32,-198.88 0,-107.86 -96.64,-195.97 -216.75,-199.08 M 1478.4,1878 v 0 c 0,0 0,0 0,0 m -97.98,31.37 c -0.16,0.03 -0.32,0.07 -0.48,0.1 -20.02,14.99 -37.07,33.05 -50.21,53.37 0.07,-0.04 0.15,-0.07 0.22,-0.11 13.2,-20.34 30.37,-38.36 50.47,-53.36 m -29.4,48.52 c -0.01,0 -0.01,0 -0.02,0 0.01,0 0.01,0 0.02,0 m 184.32,303.05 c -0.11,0.01 -0.21,0.01 -0.32,0.02 0.11,-0.01 0.21,-0.01 0.32,-0.02 m -0.35,0.02 c -0.1,0 -0.2,0.01 -0.3,0.01 0.1,0 0.2,-0.01 0.3,-0.01 m -0.33,0.01 c -0.11,0.01 -0.21,0.01 -0.31,0.02 0.1,-0.01 0.2,-0.01 0.31,-0.02 m -0.32,0.02 c -0.76,0.03 -1.52,0.06 -2.28,0.09 0.76,-0.03 1.52,-0.06 2.28,-0.09 m -2.33,0.09 c -0.09,0 -0.16,0 -0.25,0.01 0.09,-0.01 0.16,-0.01 0.25,-0.01 m -0.35,0.01 c -0.08,0 -0.15,0.01 -0.24,0.01 0.09,0 0.16,-0.01 0.24,-0.01 m -0.34,0.01 c -0.07,0.01 -0.15,0.01 -0.22,0.01 0.07,0 0.14,0 0.22,-0.01 m -0.35,0.01 c -0.08,0 -0.13,0.01 -0.21,0.01 0.07,0 0.14,-0.01 0.21,-0.01 m -0.35,0.01 c -0.07,0.01 -0.13,0.01 -0.2,0.01 0.07,0 0.13,0 0.2,-0.01 m -0.34,0.01 c -0.07,0 -0.14,0.01 -0.21,0.01 0.07,0 0.14,-0.01 0.21,-0.01 m -0.35,0.01 c -0.07,0 -0.13,0 -0.2,0.01 0.07,-0.01 0.14,-0.01 0.2,-0.01 m -0.35,0.01 c -0.06,0 -0.13,0 -0.19,0.01 0.06,-0.01 0.13,-0.01 0.19,-0.01 m -0.35,0.01 c -0.06,0 -0.12,0 -0.18,0 0.06,0 0.12,0 0.18,0 m -0.33,0 c -0.07,0.01 -0.14,0.01 -0.21,0.01 0.07,0 0.14,0 0.21,-0.01 m -0.31,0.01 c -0.25,0.01 -0.51,0.01 -0.76,0.02 0.26,-0.01 0.51,-0.01 0.76,-0.02 m -0.92,0.02 c -0.05,0 -0.12,0 -0.17,0 0.06,0 0.11,0 0.17,0 m -0.34,0.01 c -0.06,0 -0.12,0 -0.18,0 0.06,0 0.12,0 0.18,0 m -0.35,0 c -0.06,0 -0.12,0 -0.17,0 0.05,0 0.11,0 0.17,0 m -0.35,0.01 c -0.05,0 -0.11,0 -0.17,0 0.06,0 0.11,0 0.17,0 m -0.35,0 c -0.06,0 -0.11,0 -0.16,0 0.05,0 0.1,0 0.16,0 m -0.35,0 c -0.05,0 -0.1,0 -0.16,0 0.05,0 0.11,0 0.16,0 m -0.35,0.01 c -0.05,0 -0.11,0 -0.16,0 0.06,0 0.1,0 0.16,0 m -0.35,0 c -0.05,0 -0.11,0 -0.16,0 0.06,0 0.1,0 0.16,0 m -0.36,0 c -0.04,0 -0.1,0 -0.15,0 0.06,0 0.1,0 0.15,0 m -0.35,0 c -0.04,0.01 -0.1,0.01 -0.14,0.01 0.05,0 0.09,0 0.14,-0.01 m -0.35,0.01 c -0.05,0 -0.09,0 -0.14,0 0.04,0 0.09,0 0.14,0 m -0.37,0 c -0.04,0 -0.08,0 -0.12,0 0.04,0 0.08,0 0.12,0 m -0.92,0 c 0.05,0 0.1,0 0.15,0 -0.05,0 -0.1,0 -0.15,0"
         id="path291" />
    </clipPath>
    <radialGradient
       fx="0"
       fy="0"
       cx="0"
       cy="0"
       r="1"
       gradientUnits="userSpaceOnUse"
       gradientTransform="matrix(221.58,0,0,-221.58,1523.33,2062.06)"
       spreadMethod="pad"
       id="radialGradient301">
      <stop
         style="stop-opacity:1;stop-color:#e9e9e9"
         offset="0"
         id="stop295" />
      <stop
         style="stop-opacity:1;stop-color:#e9e9e9"
         offset="0.46656709"
         id="stop297" />
      <stop
         style="stop-opacity:1;stop-color:#918f90"
         offset="1"
         id="stop299" />
    </radialGradient>
    <clipPath
       clipPathUnits="userSpaceOnUse"
       id="clipPath311">
      <path
         d="M 0,0 H 2551.18 V 2787.57 H 0 Z"
         id="path309" />
    </clipPath>
    <clipPath
       clipPathUnits="userSpaceOnUse"
       id="clipPath321">
      <path
         d="m 1043.34,1795.39 c 2.4,0 4.77,0.16 7.16,0.25 0.02,-0.03 0.04,-0.07 0.06,-0.12 -2.4,-0.09 -4.81,-0.13 -7.22,-0.13 m 0.88,42.51 c 0,0.01 0,0.01 0.01,0.02 -0.01,-0.01 -0.01,-0.01 -0.01,-0.02 m 0.07,0.32 c 0,0 0.01,0.01 0.01,0.01 0,0 -0.01,-0.01 -0.01,-0.01 m 0.04,0.14 c 0,0 0,0 0,0 v 0 m 16.17,27.62 c -166.566,100.57 -204.289,256.29 -206.516,382.91 -26.363,-46.42 -42.015,-102.86 -42.32,-163.78 0.781,157.42 103.734,285.28 230.426,286.11 -41.8,-0.28 -80.988,-14.45 -114.805,-38.88 84.975,-27.52 155.445,-84.73 208.805,-268.91 l 0.74,0.41 c 1.7,59.73 32.79,107.38 71.02,107.38 20.85,0 39.55,-14.25 52.57,-36.82 l 10.02,5.71 c -20.72,128.18 -110.12,225.84 -218.27,230.91 123.66,-5.79 222.82,-132.63 222.82,-287.72 0,-61.29 -15.49,-118.18 -41.87,-164.92 -70.1,-8.24 -135.91,-32.03 -153.51,-40.42 -7.74,-3.69 -14.03,-7.57 -19.12,-11.98 M 811.66,2083.3 v 0 c 0,0.11 0,0.21 0,0.32 0,-0.11 0,-0.21 0,-0.32 m 0,0.4 c 0,0.11 0,0.21 0,0.32 0,-0.11 0,-0.21 0,-0.32 m 0,0.34 c 0,0.1 0,0.2 0,0.31 0,-0.1 0,-0.21 0,-0.31 m 0,0.37 c 0,0.11 0.004,0.22 0.004,0.33 0,-0.11 -0.004,-0.22 -0.004,-0.33 m 0.004,0.34 c 0,0.12 0,0.23 0,0.35 0,-0.12 0,-0.23 0,-0.35 m 240.496,286.27 c -0.11,0 -0.21,0.01 -0.32,0.01 0.11,0 0.21,-0.01 0.32,-0.01 m -0.33,0.01 c -0.32,0.02 -0.64,0.03 -0.96,0.04 0.32,-0.01 0.64,-0.02 0.96,-0.04 m -0.98,0.04 c -0.1,0.01 -0.2,0.01 -0.31,0.02 0.11,-0.01 0.21,-0.01 0.31,-0.02 m -0.33,0.02 c -0.31,0.01 -0.63,0.02 -0.95,0.03 0.32,-0.01 0.64,-0.02 0.95,-0.03 m -0.98,0.03 c -0.09,0 -0.2,0.01 -0.3,0.01 0.11,0 0.2,-0.01 0.3,-0.01 m -0.33,0.01 c -0.1,0 -0.2,0.01 -0.31,0.01 0.11,0 0.21,-0.01 0.31,-0.01 m -0.31,0.01 c -0.21,0 -0.43,0.01 -0.64,0.02 0.21,-0.01 0.43,-0.02 0.64,-0.02 m -0.66,0.02 c -0.1,0 -0.2,0 -0.3,0 0.1,0 0.2,0 0.3,0 m -0.34,0.01 c -0.1,0 -0.2,0 -0.3,0.01 0.1,-0.01 0.2,-0.01 0.3,-0.01 m -0.31,0.01 c -0.22,0 -0.42,0 -0.63,0.01 0.21,-0.01 0.42,-0.01 0.63,-0.01 m -0.66,0.01 c -0.1,0 -0.2,0 -0.3,0 0.1,0 0.2,0 0.3,0 m -0.34,0.01 c -0.09,0 -0.2,0 -0.29,0 0.1,0 0.19,0 0.29,0 m -0.33,0 c -0.2,0 -0.4,0 -0.6,0.01 0.2,-0.01 0.4,-0.01 0.6,-0.01 m -0.64,0.01 c -0.1,0 -0.2,0 -0.29,0 0.1,0 0.18,0 0.29,0 m -0.34,0 c -0.1,0 -0.2,0 -0.29,0 0.09,0 0.2,0 0.29,0 m -0.33,0 c -0.21,0.01 -0.4,0.01 -0.6,0.01 0.2,0 0.4,0 0.6,-0.01 m -2.85,0.01 c 0.08,0 0.16,0 0.24,0 -0.08,0 -0.16,0 -0.24,0 m 0.25,0 c 0.15,0 0.31,0 0.47,0 -0.16,0 -0.31,0 -0.47,0 m 1.96,0 c -0.1,0 -0.2,0 -0.29,0 0.1,0 0.18,0 0.29,0 m -0.34,0 c -0.1,0 -0.19,0 -0.29,0 0.09,0 0.19,0 0.29,0 m -1.1,0 c 0.07,0 0.11,0 0.17,0 -0.05,0 -0.11,0 -0.17,0 m 0.76,0 c -0.1,0 -0.19,0 -0.29,0 -0.08,0 -0.15,0 -0.23,0 0.07,0 0.15,0 0.23,0 0.1,0 0.19,0 0.29,0"
         id="path319" />
    </clipPath>
    <radialGradient
       fx="0"
       fy="0"
       cx="0"
       cy="0"
       r="1"
       gradientUnits="userSpaceOnUse"
       gradientTransform="matrix(271.252,0,0,-271.252,1043.33,2083.3)"
       spreadMethod="pad"
       id="radialGradient331">
      <stop
         style="stop-opacity:1;stop-color:#e9e9e9"
         offset="0"
         id="stop323" />
      <stop
         style="stop-opacity:1;stop-color:#e9e9e9"
         offset="0.44960085"
         id="stop325" />
      <stop
         style="stop-opacity:1;stop-color:#918f90"
         offset="0.963636"
         id="stop327" />
      <stop
         style="stop-opacity:1;stop-color:#918f90"
         offset="1"
         id="stop329" />
    </radialGradient>
    <clipPath
       clipPathUnits="userSpaceOnUse"
       id="clipPath341">
      <path
         d="M 0,0 H 2551.18 V 2787.57 H 0 Z"
         id="path339" />
    </clipPath>
    <clipPath
       clipPathUnits="userSpaceOnUse"
       id="clipPath351">
      <path
         d="m 1136.09,2063.43 c -53.36,184.18 -123.83,241.39 -208.805,268.91 33.817,24.43 73.005,38.6 114.805,38.88 h 0.01 c 0.08,0 0.16,0 0.24,0 0.01,0 0,0 0.01,0 0.16,0 0.31,0 0.47,0 0.02,0 0.04,0 0.05,0 0.06,0 0.12,0 0.17,0 0.03,0 0.05,0 0.07,0 0.08,0 0.15,0 0.23,0 0.1,0 0.19,0 0.29,0 0.02,0 0.03,0 0.05,0 0.1,0 0.19,0 0.29,0 0.01,0 0.03,0 0.05,0 0.09,0 0.19,0 0.29,0 0,0 0.03,0 0.04,0 0.2,0 0.39,0 0.6,-0.01 0.02,0 0.02,0 0.04,0 0.09,0 0.19,0 0.29,0 0.01,0 0.03,0 0.05,0 0.09,0 0.19,0 0.29,0 0,0 0.03,0 0.04,0 0.2,-0.01 0.4,-0.01 0.6,-0.01 0.02,0 0.02,0 0.04,0 0.09,0 0.2,0 0.29,0 0.01,0 0.03,-0.01 0.04,-0.01 0.1,0 0.2,0 0.3,0 h 0.03 c 0.21,-0.01 0.41,-0.01 0.63,-0.01 0,0 0,0 0.01,0 0.1,-0.01 0.2,-0.01 0.3,-0.01 0.01,0 0.03,-0.01 0.04,-0.01 0.1,0 0.2,0 0.3,0 0.01,0 0.02,0 0.02,0 0.21,-0.01 0.43,-0.02 0.64,-0.02 v 0 c 0.11,0 0.21,-0.01 0.31,-0.01 0.01,0 0.03,0 0.03,0 0.1,0 0.21,-0.01 0.3,-0.01 0.01,0 0.02,0 0.03,0 0.32,-0.01 0.64,-0.02 0.95,-0.03 0.01,0 0.01,0 0.02,0 0.11,-0.01 0.21,-0.01 0.31,-0.02 h 0.02 c 0.32,-0.01 0.64,-0.02 0.96,-0.04 h 0.01 c 0.11,0 0.21,-0.01 0.32,-0.01 h 0.01 c 108.15,-5.07 197.55,-102.73 218.27,-230.91 l -10.02,-5.71 c -13.02,22.57 -31.72,36.82 -52.57,36.82 -38.23,0 -69.32,-47.65 -71.02,-107.38 l -0.74,-0.41"
         id="path349" />
    </clipPath>
    <clipPath
       clipPathUnits="userSpaceOnUse"
       id="clipPath363">
      <path
         d="m 1052.17,2371.02 h -0.01 0.01 m -0.33,0.01 h -0.01 0.01 m -0.97,0.04 h -0.02 0.02 m -0.33,0.02 c -0.01,0 -0.01,0 -0.02,0 h 0.02 m -0.97,0.03 c -0.01,0 -0.02,0 -0.03,0 0.02,0 0.02,0 0.03,0 m -0.33,0.01 c 0,0 -0.02,0 -0.03,0 0.01,0 0.02,0 0.03,0 m -0.34,0.01 v 0 0 m -0.64,0.02 c 0,0 -0.01,0 -0.02,0 0.01,0 0.02,0 0.02,0 m -0.32,0 c -0.01,0 -0.03,0.01 -0.04,0.01 0.02,0 0.02,-0.01 0.04,-0.01 m -0.34,0.02 c -0.01,0 -0.01,0 -0.01,0 h 0.01 m -0.64,0.01 h -0.03 c 0.01,0 0.02,0 0.03,0 m -0.33,0 c -0.01,0 -0.03,0.01 -0.04,0.01 0.02,0 0.03,0 0.04,-0.01 m -0.33,0.01 c -0.02,0 -0.02,0 -0.04,0 0.01,0 0.03,0 0.04,0 m -0.64,0.01 c -0.01,0 -0.04,0 -0.04,0 0.01,0 0.02,0 0.04,0 m -0.33,0 c -0.02,0 -0.04,0 -0.05,0 0.01,0 0.03,0 0.05,0 m -0.34,0 c -0.02,0 -0.02,0 -0.04,0 0.01,0 0.03,0 0.04,0 m -2.9,0.01 c 0.01,0 0.01,0 0.01,0 h -0.01 m 2.26,0 c -0.01,0 -0.04,0 -0.04,0 0.01,0 0.02,0 0.04,0 m -2.01,0 c 0,0 0,0 0.01,0 -0.01,0 0,0 -0.01,0 m 1.68,0 c -0.02,0 -0.04,0 -0.05,0 0.01,0 0.03,0 0.05,0 m -1.2,0 c 0.02,0 0.04,0 0.05,0 -0.01,0 -0.03,0 -0.05,0 m 0.86,0 c -0.02,0 -0.03,0 -0.05,0 0.02,0 0.04,0 0.05,0 m -0.64,0 c 0.03,0 0.05,0 0.07,0 -0.02,0 -0.04,0 -0.07,0"
         id="path361" />
    </clipPath>
    <clipPath
       clipPathUnits="userSpaceOnUse"
       id="clipPath375">
      <path
         d="m 1624.26,2038.73 c -0.3,2.64 -0.6,5.3 -0.93,8.2 -6.39,56.25 -44.85,165.13 -131.2,212.32 10.03,1.25 20.24,1.95 30.65,1.98 0.04,0 0.06,0 0.1,0 0.05,0 0.1,0 0.15,0 0.1,0 0.19,0 0.3,0 v 0 0 c 0.11,0 0.23,0 0.35,0 0.04,0 0.08,0 0.12,0 0.08,0 0.15,0 0.23,0 0.05,0 0.09,0 0.14,0 0.06,0 0.14,0 0.21,0 0.04,0 0.1,0 0.14,-0.01 0.07,0 0.14,0 0.2,0 0.05,0 0.11,0 0.15,0 0.06,0 0.14,0 0.2,0 0.05,0 0.11,0 0.16,0 0.06,0 0.13,0 0.19,0 0.05,0 0.11,0 0.16,0 0.06,0 0.13,-0.01 0.19,-0.01 0.06,0 0.11,0 0.16,0 0.07,0 0.12,0 0.19,0 0.05,0 0.1,0 0.16,0 0.06,0 0.12,0 0.18,0 0.06,0 0.12,0 0.17,0 0.06,-0.01 0.12,-0.01 0.18,-0.01 0.05,0 0.11,0 0.17,0 0.06,0 0.11,0 0.17,0 0.06,0 0.12,0 0.18,0 0.05,0 0.11,0 0.17,-0.01 0.05,0 0.12,0 0.17,0 0.05,0 0.11,0 0.16,0 0.25,-0.01 0.51,-0.01 0.76,-0.02 0.04,0 0.07,0 0.1,0 0.07,0 0.14,0 0.21,-0.01 0.04,0 0.1,0 0.15,0 0.06,0 0.12,0 0.18,0 0.06,0 0.11,0 0.16,0 0.06,-0.01 0.13,-0.01 0.19,-0.01 0.06,0 0.1,0 0.15,0 0.07,-0.01 0.13,-0.01 0.2,-0.01 0.05,0 0.1,0 0.14,0 0.07,0 0.14,-0.01 0.21,-0.01 0.05,0 0.09,0 0.14,0 0.07,0 0.13,0 0.2,-0.01 0.05,0 0.09,0 0.14,0 0.08,0 0.13,-0.01 0.21,-0.01 0.04,0 0.08,0 0.13,0 0.07,0 0.15,0 0.22,-0.01 0.03,0 0.07,0 0.1,0 0.09,0 0.16,-0.01 0.24,-0.01 0.03,0 0.07,0 0.1,0 0.09,-0.01 0.16,-0.01 0.25,-0.01 0.01,0 0.04,0 0.05,0 0.76,-0.03 1.52,-0.06 2.28,-0.09 h 0.01 c 0.1,-0.01 0.2,-0.01 0.31,-0.02 0.01,0 0.01,0 0.03,0 0.1,0 0.2,-0.01 0.3,-0.01 h 0.03 c 0.11,-0.01 0.21,-0.01 0.32,-0.02 v 0 c 109.13,-5.18 197.68,-80.58 209.85,-176.32 l -120.93,-45.89"
         id="path373" />
    </clipPath>
    <clipPath
       clipPathUnits="userSpaceOnUse"
       id="clipPath387">
      <path
         d="m 1535.34,2260.94 v 0 0 m -0.32,0.02 h -0.03 c 0.01,0 0.02,0 0.03,0 m -0.33,0.01 c -0.02,0 -0.02,0 -0.03,0 0.01,0 0.02,0 0.03,0 m -0.34,0.02 h -0.01 0.01 m -2.29,0.09 c -0.01,0 -0.04,0 -0.05,0 0.01,0 0.04,0 0.05,0 m -0.3,0.01 c -0.03,0 -0.07,0 -0.1,0 0.03,0 0.07,0 0.1,0 m -0.34,0.01 c -0.03,0 -0.07,0 -0.1,0 0.03,0 0.07,0 0.1,0 m -0.32,0.01 c -0.05,0 -0.09,0 -0.13,0 0.04,0 0.09,0 0.13,0 m -0.34,0.01 c -0.05,0 -0.09,0 -0.14,0 0.04,0 0.1,0 0.14,0 m -0.34,0.01 c -0.05,0 -0.09,0 -0.14,0 0.04,0 0.09,0 0.14,0 m -0.35,0.01 c -0.04,0 -0.09,0 -0.14,0 0.05,0 0.1,0 0.14,0 m -0.34,0.01 c -0.05,0 -0.09,0 -0.15,0 0.05,0 0.1,0 0.15,0 m -0.34,0.01 c -0.05,0 -0.1,0 -0.16,0 0.06,0 0.1,0 0.16,0 m -0.34,0 c -0.05,0 -0.11,0 -0.15,0 0.05,0 0.1,0 0.15,0 m -0.36,0.01 c -0.03,0 -0.06,0 -0.1,0 0.03,0 0.07,0 0.1,0 m -0.86,0.02 c -0.05,0 -0.11,0 -0.16,0 0.06,0 0.11,0 0.16,0 m -0.33,0 c -0.06,0.01 -0.12,0.01 -0.17,0.01 0.05,0 0.11,0 0.17,-0.01 m -0.35,0.01 c -0.06,0 -0.11,0 -0.17,0 0.06,0 0.11,0 0.17,0 m -0.34,0 c -0.06,0 -0.12,0 -0.18,0.01 0.06,-0.01 0.12,-0.01 0.18,-0.01 m -0.35,0.01 c -0.06,0 -0.12,0 -0.18,0 0.06,0 0.12,0 0.18,0 m -0.34,0 c -0.07,0 -0.12,0 -0.19,0 0.06,0 0.13,0 0.19,0 m -0.35,0 c -0.06,0 -0.13,0.01 -0.19,0.01 0.06,0 0.13,-0.01 0.19,-0.01 m -0.35,0.01 c -0.06,0 -0.13,0 -0.19,0 0.07,0 0.12,0 0.19,0 m -0.35,0 c -0.06,0 -0.14,0 -0.2,0 0.07,0 0.14,0 0.2,0 m -0.35,0 c -0.06,0 -0.13,0 -0.2,0 0.07,0 0.13,0 0.2,0 m -0.34,0.01 c -0.07,0 -0.15,0 -0.21,0 0.07,0 0.14,0 0.21,0 m -0.35,0 c -0.08,0 -0.15,0 -0.23,0 0.07,0 0.16,0 0.23,0 m -1.25,0 c 0.03,0 0.07,0 0.1,0 -0.04,0 -0.06,0 -0.1,0 m 0.9,0 c -0.12,0 -0.24,0 -0.35,0 0.12,0 0.23,0 0.35,0 m -0.65,0 c 0.1,0 0.2,0 0.3,0 -0.11,0 -0.2,0 -0.3,0"
         id="path385" />
    </clipPath>
    <clipPath
       clipPathUnits="userSpaceOnUse"
       id="clipPath399">
      <path
         d="M 0,0 H 2551.18 V 2787.57 H 0 Z"
         id="path397" />
    </clipPath>
    <clipPath
       clipPathUnits="userSpaceOnUse"
       id="clipPath411">
      <path
         d="m 1307.18,2108.88 c -8.41,-14.93 -13.5,-34.16 -13.5,-55.15 0,-47.33 25.79,-85.84 57.5,-85.84 11.28,0 21.79,4.95 30.68,13.37 l -2.26,0.1 c -41.14,3.65 -70.9,58.48 -72.42,127.52 z"
         id="path409" />
    </clipPath>
    <linearGradient
       x1="0"
       y1="0"
       x2="1"
       y2="0"
       gradientUnits="userSpaceOnUse"
       gradientTransform="matrix(106.663,-89.5006,-89.5006,-106.663,1278.46,2074.64)"
       spreadMethod="pad"
       id="linearGradient421">
      <stop
         style="stop-opacity:1;stop-color:#231f20"
         offset="0"
         id="stop413" />
      <stop
         style="stop-opacity:1;stop-color:#231f20"
         offset="0.29325684"
         id="stop415" />
      <stop
         style="stop-opacity:1;stop-color:#656263"
         offset="0.812121"
         id="stop417" />
      <stop
         style="stop-opacity:1;stop-color:#656263"
         offset="1"
         id="stop419" />
    </linearGradient>
    <clipPath
       clipPathUnits="userSpaceOnUse"
       id="clipPath431">
      <path
         d="M 0,0 H 2551.18 V 2787.57 H 0 Z"
         id="path429" />
    </clipPath>
    <clipPath
       clipPathUnits="userSpaceOnUse"
       id="clipPath447">
      <path
         d="m 1168.25,2128.53 c 0.27,3.08 0.7,6.09 1.07,9.11 -13.73,-18.97 -22.66,-47.57 -22.66,-78.91 0,-55.57 28.02,-102.51 61.19,-102.51 11.8,0 22.92,6.03 32.39,16.19 l -0.49,0.03 c -46.68,4.13 -78.76,74.16 -71.5,156.09 z"
         id="path445" />
    </clipPath>
    <linearGradient
       x1="0"
       y1="0"
       x2="1"
       y2="0"
       gradientUnits="userSpaceOnUse"
       gradientTransform="matrix(122.986,-103.198,-103.198,-122.986,1129.72,2090.45)"
       spreadMethod="pad"
       id="linearGradient457">
      <stop
         style="stop-opacity:1;stop-color:#231f20"
         offset="0"
         id="stop449" />
      <stop
         style="stop-opacity:1;stop-color:#231f20"
         offset="0.29325684"
         id="stop451" />
      <stop
         style="stop-opacity:1;stop-color:#656263"
         offset="0.812121"
         id="stop453" />
      <stop
         style="stop-opacity:1;stop-color:#656263"
         offset="1"
         id="stop455" />
    </linearGradient>
    <clipPath
       clipPathUnits="userSpaceOnUse"
       id="clipPath467">
      <path
         d="M 0,0 H 2551.18 V 2787.57 H 0 Z"
         id="path465" />
    </clipPath>
    <clipPath
       clipPathUnits="userSpaceOnUse"
       id="clipPath479">
      <path
         d="m 590.59,1090.09 c 0,0.2 0,0.4 0,0.59 0,-0.19 0,-0.4 0,-0.59 m 0,0.76 c 0,0.15 0,0.31 0,0.46 0,-0.17 0,-0.3 0,-0.46 m 0.004,0.6 c 0,0.19 0,0.38 0,0.57 0,-0.16 0,-0.4 0,-0.57 m 0,0.76 c 0,0.13 0,0.27 0,0.39 0,-0.11 0,-0.28 0,-0.39 m 0,0.64 c 0,0.12 0,0.22 0,0.34 0,-0.11 0,-0.23 0,-0.34 m 0.004,0.86 c 0,0.07 0,0.13 0,0.2 0,-0.06 0,-0.14 0,-0.2 m 0.004,0.57 c 0,0.06 0,0.11 0,0.17 0,-0.06 0,-0.12 0,-0.17"
         id="path477" />
    </clipPath>
    <clipPath
       clipPathUnits="userSpaceOnUse"
       id="clipPath491">
      <path
         d="m 629.188,820.77 c -15.243,51.781 -26.172,105.921 -32.407,161.839 -0.09,0.071 -0.179,0.141 -0.269,0.211 -3.903,35.1 -5.922,70.9 -5.922,107.27 v 0 c 0,0.19 0,0.4 0,0.59 0,0.06 0,0.11 0,0.17 0,0.16 0,0.29 0,0.46 0,0.05 0,0.1 0.004,0.14 0,0.17 0,0.41 0,0.57 0,0.07 0,0.13 0,0.19 0,0.11 0,0.28 0,0.39 0,0.08 0,0.17 0,0.25 0,0.11 0,0.23 0,0.34 0.004,0.17 0.004,0.35 0.004,0.52 0,0.06 0,0.14 0,0.2 0,0.12 0,0.25 0.004,0.37 0,0.05 0,0.11 0,0.17 0.41,92.88 13.933,182.06 38.457,265.13 h 56.539 c -4.246,-151.63 11.89,-326.21 71.808,-518.592 -45.027,-2.187 -88.117,-9.179 -128.218,-20.218"
         id="path489" />
    </clipPath>
    <clipPath
       clipPathUnits="userSpaceOnUse"
       id="clipPath503">
      <path
         d="M 629.066,820.738 C 613.773,872.59 602.742,926.809 596.512,982.82 v 0 c 0.09,-0.07 0.179,-0.14 0.269,-0.211 6.235,-55.918 17.164,-110.058 32.407,-161.839 -0.036,-0.008 -0.083,-0.02 -0.122,-0.032"
         id="path501" />
    </clipPath>
    <clipPath
       clipPathUnits="userSpaceOnUse"
       id="clipPath515">
      <path
         d="m 685.598,1359.58 h -56.539 c 17.777,60.24 41.339,117.28 69.867,170.18 -6.696,-52.87 -11.633,-109.69 -13.328,-170.18"
         id="path513" />
    </clipPath>
    <clipPath
       clipPathUnits="userSpaceOnUse"
       id="clipPath527">
      <path
         d="m 1964.95,985.469 c 3.37,31.081 5.27,62.731 5.59,94.821 -0.32,-32.09 -2.21,-63.73 -5.58,-94.821 -0.01,0 -0.01,0 -0.01,0 m 5.59,94.821 c 0,0.24 0,0.46 0,0.69 0,-0.23 0,-0.46 0,-0.69 m 0,0.73 c 0.01,0.22 0.01,0.44 0.01,0.65 0,-0.21 0,-0.43 -0.01,-0.65 m 0.01,0.73 c 0,0.21 0,0.42 0.01,0.62 -0.01,-0.2 -0.01,-0.42 -0.01,-0.62 m 0.01,0.71 c 0,0.21 0,0.4 0,0.61 0,-0.21 0,-0.4 0,-0.61 m 0,0.74 c 0,0.19 0,0.38 0.01,0.56 -0.01,-0.18 -0.01,-0.38 -0.01,-0.56 m 0.01,0.71 c 0,0.19 0,0.37 0,0.55 0,-0.17 0,-0.37 0,-0.55 m 0,0.73 c 0,0.18 0,0.35 0,0.52 0,-0.17 0,-0.34 0,-0.52 m 0,0.74 c 0.01,0.16 0.01,0.32 0.01,0.48 0,-0.16 0,-0.32 -0.01,-0.48 m 0.01,0.76 c 0,0.14 0,0.28 0,0.42 0,-0.14 0,-0.28 0,-0.42 m 0,0.73 c 0,0.13 0,0.26 0,0.4 0,-0.14 0,-0.27 0,-0.4 m 0,0.77 c 0,0.1 0,0.22 0,0.33 0,-0.11 0,-0.22 0,-0.33 m 0,0.74 c 0,0.1 0,0.2 0.01,0.3 -0.01,-0.11 -0.01,-0.19 -0.01,-0.3 m 0.01,0.74 c 0,0.09 0,0.18 0,0.26 0,-0.08 0,-0.17 0,-0.26 m 0,0.97 c 0,0.19 0,0.4 0,0.59 0,-0.2 0,-0.39 0,-0.59 m 0,0.76 c 0,0.16 0,0.28 0,0.44 0,-0.14 0,-0.29 0,-0.44 m 0,0.61 c -0.01,0.17 -0.01,0.39 -0.01,0.56 0,-0.19 0,-0.37 0.01,-0.56 m -0.01,0.78 c 0,0.11 0,0.23 0,0.34 0,-0.11 0,-0.23 0,-0.34 m 0,0.62 c 0,0.09 0,0.21 0,0.3 0,-0.1 0,-0.2 0,-0.3 m 0,0.84 c 0,0.06 0,0.16 0,0.21 0,-0.07 0,-0.14 0,-0.21 m 0,0.59 c 0,0.03 0,0.11 0,0.14 0,-0.04 0,-0.1 0,-0.14"
         id="path525" />
    </clipPath>
    <clipPath
       clipPathUnits="userSpaceOnUse"
       id="clipPath539">
      <path
         d="m 1931.73,819.988 c -39.99,11.242 -83.02,18.434 -128,20.852 59.95,192.42 76.1,367.08 71.85,518.74 h 56.54 c 24.52,-83.08 38.05,-172.26 38.46,-265.15 0,-0.03 0,-0.11 0,-0.14 0,-0.12 0,-0.25 0,-0.38 0,-0.05 0,-0.15 0,-0.21 0,-0.18 0,-0.37 0,-0.54 0,-0.09 0,-0.21 0,-0.3 0,-0.1 0,-0.18 0,-0.28 0,-0.11 0,-0.23 0,-0.34 0,-0.08 0,-0.14 0,-0.22 0,-0.17 0,-0.39 0.01,-0.56 0,-0.04 0,-0.12 0,-0.17 0,-0.16 0,-0.28 0,-0.44 0,-0.06 0,-0.11 0,-0.17 0,-0.19 0,-0.4 0,-0.59 v 0 0 c 0,-0.24 0,-0.47 0,-0.71 0,-0.08 0,-0.17 0,-0.26 0,-0.14 0,-0.3 0,-0.44 -0.01,-0.1 -0.01,-0.2 -0.01,-0.3 0,-0.13 0,-0.28 0,-0.41 0,-0.11 0,-0.23 0,-0.33 0,-0.13 0,-0.25 0,-0.37 0,-0.14 0,-0.27 0,-0.4 0,-0.1 0,-0.21 0,-0.31 0,-0.14 0,-0.28 0,-0.42 0,-0.1 0,-0.18 0,-0.28 0,-0.16 0,-0.32 -0.01,-0.48 0,-0.07 0,-0.14 0,-0.22 0,-0.17 0,-0.34 0,-0.52 0,-0.06 0,-0.12 0,-0.18 0,-0.18 0,-0.36 0,-0.55 0,-0.05 0,-0.09 0,-0.15 -0.01,-0.18 -0.01,-0.37 -0.01,-0.56 0,-0.04 0,-0.09 0,-0.13 0,-0.21 0,-0.4 0,-0.61 0,-0.03 0,-0.06 0,-0.09 -0.01,-0.2 -0.01,-0.41 -0.01,-0.62 0,-0.03 0,-0.05 0,-0.08 0,-0.21 0,-0.43 -0.01,-0.65 0,-0.01 0,-0.03 0,-0.04 0,-0.23 0,-0.45 0,-0.69 v 0 c -0.32,-32.09 -2.22,-63.74 -5.59,-94.821 -0.08,-0.071 -0.17,-0.141 -0.25,-0.199 -6.22,-57.149 -17.35,-112.45 -32.97,-165.282"
         id="path537" />
    </clipPath>
    <clipPath
       clipPathUnits="userSpaceOnUse"
       id="clipPath551">
      <path
         d="m 1931.88,819.941 c -0.05,0.02 -0.1,0.028 -0.15,0.047 15.62,52.832 26.75,108.133 32.97,165.282 0.08,0.058 0.17,0.128 0.25,0.199 0,0 0,0 0.01,0 -6.21,-57.239 -17.42,-112.61 -33.08,-165.528"
         id="path549" />
    </clipPath>
    <clipPath
       clipPathUnits="userSpaceOnUse"
       id="clipPath563">
      <path
         d="m 1932.12,1359.58 h -56.54 c -1.69,60.49 -6.63,117.31 -13.32,170.18 28.52,-52.9 52.08,-109.94 69.86,-170.18"
         id="path561" />
    </clipPath>
    <clipPath
       clipPathUnits="userSpaceOnUse"
       id="clipPath575">
      <path
         d="m 772.641,2139.56 c 0,0 23.336,291.66 259.999,291.66 236.67,0 246.4,-206.97 246.4,-206.97 0,0 -40.72,178.64 -243.22,178.64 -202.496,0 -263.179,-263.33 -263.179,-263.33"
         id="path573" />
    </clipPath>
    <clipPath
       clipPathUnits="userSpaceOnUse"
       id="clipPath587">
      <path
         d="m 1757.64,2179.56 c 0,0 -63,121.66 -229.66,121.66 -166.66,0 -229.66,-95 -229.66,-95 0,0 67.99,116.67 229.66,116.67 161.67,0 229.66,-143.33 229.66,-143.33"
         id="path585" />
    </clipPath>
    <clipPath
       clipPathUnits="userSpaceOnUse"
       id="clipPath599">
      <path
         d="m 949.961,410.211 c -49.934,0 -104.566,1.527 -161.859,1.527 -57.282,0 -111.938,-1.527 -161.864,-1.527 -155.847,0 -265.636,14.898 -265.636,137.777 0,162.242 191.402,293.75 427.5,293.75 236.098,0 427.498,-131.508 427.498,-293.75 0,-16.879 -2.08,-31.738 -6.06,-44.789 -1.57,-5.14 -3.43,-9.988 -5.58,-14.59 -32.11,-68.648 -128.02,-78.398 -253.999,-78.398 M 721.656,756.219 c -138.07,0 -250,-68.09 -250,-152.078 0,-83.993 111.93,-152.09 250,-152.09 138.071,0 250,68.097 250,152.09 0,83.988 -111.929,152.078 -250,152.078"
         id="path597" />
    </clipPath>
    <clipPath
       clipPathUnits="userSpaceOnUse"
       id="clipPath611">
      <path
         d="m 1931.84,410.211 c -49.92,0 -104.58,1.527 -161.86,1.527 -57.29,0 -111.92,-1.527 -161.86,-1.527 -134.42,0 -234.6,11.09 -259.58,93 -3.98,13.039 -6.06,27.898 -6.06,44.777 0,162.242 191.41,293.75 427.5,293.75 236.1,0 427.5,-131.508 427.5,-293.75 0,-122.879 -109.78,-137.777 -265.64,-137.777 m -63.51,346.008 c -138.08,0 -250,-68.09 -250,-152.078 0,-83.993 111.92,-152.09 250,-152.09 138.07,0 250,68.097 250,152.09 0,83.988 -111.93,152.078 -250,152.078"
         id="path609" />
    </clipPath>
    <clipPath
       clipPathUnits="userSpaceOnUse"
       id="clipPath623">
      <path
         d="m 721.656,452.051 c -138.07,0 -250,68.097 -250,152.09 0,83.988 111.93,152.078 250,152.078 138.071,0 250,-68.09 250,-152.078 0,-83.993 -111.929,-152.09 -250,-152.09"
         id="path621" />
    </clipPath>
    <clipPath
       clipPathUnits="userSpaceOnUse"
       id="clipPath635">
      <path
         d="m 1868.33,452.051 c -138.08,0 -250,68.097 -250,152.09 0,83.988 111.92,152.078 250,152.078 138.07,0 250,-68.09 250,-152.078 0,-83.993 -111.93,-152.09 -250,-152.09"
         id="path633" />
    </clipPath>
    <clipPath
       clipPathUnits="userSpaceOnUse"
       id="clipPath647">
      <path
         d="M 0,0 H 2551.18 V 2787.57 H 0 Z"
         id="path645" />
    </clipPath>
    <clipPath
       clipPathUnits="userSpaceOnUse"
       id="clipPath685">
      <path
         d="m 1279.04,1574.14 c -13.44,0 -26.89,5.44 -37.15,16.32 v 0 l -175.54,186.2 -8.22,8.71 c -2.92,3.1 -5.45,6.51 -7.57,10.15 -0.02,0.05 -0.04,0.09 -0.06,0.12 0.02,0 0.05,0 0.07,0 -7.24,12.5 -9.69,27.67 -6.35,42.26 0,0.01 0,0.01 0.01,0.02 0.01,0.06 0.02,0.11 0.03,0.16 0.01,0.05 0.02,0.09 0.03,0.14 0,0 0.01,0.01 0.01,0.01 0.01,0.04 0.02,0.08 0.03,0.13 v 0 c 2.76,11.67 7.82,20.37 16.17,27.62 v 0 c 5.08,4.41 11.37,8.29 19.11,11.98 17.6,8.39 83.41,32.18 153.51,40.42 7.93,0.93 15.9,1.66 23.87,2.15 7.38,0.45 14.75,0.7 22.05,0.7 v 0 0 c 0.16,0 0.32,0 0.48,0 h 0.01 c 20.5,-0.03 41.56,-1.89 61.99,-4.84 13.18,-1.91 26.09,-4.28 38.42,-6.92 0.16,-0.03 0.32,-0.07 0.48,-0.1 0.03,-0.02 0.05,-0.04 0.08,-0.06 47.41,-10.2 86.18,-24.27 97.9,-31.31 v 0 c 0.02,-0.01 0.04,-0.03 0.07,-0.04 7.77,-4.69 14.23,-9.01 19.53,-13.69 0.03,0 0.06,-0.01 0.09,-0.01 0.05,-0.04 0.09,-0.08 0.13,-0.12 6.61,-5.87 11.31,-12.37 14.19,-21.03 0.51,-1.54 0.97,-3.15 1.36,-4.84 0.02,-0.06 0.03,-0.13 0.05,-0.19 1.02,-4.4 1.52,-8.85 1.52,-13.28 0.01,-14.61 -5.4,-28.85 -15.39,-39.43 L 1316.2,1590.46 c -10.27,-10.88 -23.71,-16.32 -37.16,-16.32"
         id="path683" />
    </clipPath>
    <radialGradient
       fx="0"
       fy="0"
       cx="0"
       cy="0"
       r="1"
       gradientUnits="userSpaceOnUse"
       gradientTransform="matrix(229.762,0,0,-229.762,1279.04,1747.69)"
       spreadMethod="pad"
       id="radialGradient691">
      <stop
         style="stop-opacity:1;stop-color:#f1da1e"
         offset="0"
         id="stop687" />
      <stop
         style="stop-opacity:1;stop-color:#fab20b"
         offset="1"
         id="stop689" />
    </radialGradient>
    <clipPath
       clipPathUnits="userSpaceOnUse"
       id="clipPath701">
      <path
         d="M 0,0 H 2551.18 V 2787.57 H 0 Z"
         id="path699" />
    </clipPath>
    <clipPath
       clipPathUnits="userSpaceOnUse"
       id="clipPath711">
      <path
         d="m 1478.12,1805.95 -101.5,-107.66 c -18.91,42.92 -63.59,85.96 -87.35,109.48 -27.66,27.37 -89.49,54.03 -138.63,63.25 36.79,10.36 84.41,20.21 128.4,20.21 80.98,0 171.15,-31.25 183.93,-38.95 17.71,-10.7 20.1,-14.43 21.62,-20.98 2.13,-9.16 -0.35,-18.86 -6.47,-25.35 z"
         id="path709" />
    </clipPath>
    <linearGradient
       x1="0"
       y1="0"
       x2="1"
       y2="0"
       gradientUnits="userSpaceOnUse"
       gradientTransform="matrix(88.2678,152.884,152.884,-88.2678,1269.53,1760.11)"
       spreadMethod="pad"
       id="linearGradient721">
      <stop
         style="stop-opacity:1;stop-color:#f2ef1d"
         offset="0"
         id="stop713" />
      <stop
         style="stop-opacity:1;stop-color:#f2ef1e"
         offset="0.175758"
         id="stop715" />
      <stop
         style="stop-opacity:1;stop-color:#ffffff"
         offset="0.909091"
         id="stop717" />
      <stop
         style="stop-opacity:1;stop-color:#ffffff"
         offset="1"
         id="stop719" />
    </linearGradient>
    <clipPath
       clipPathUnits="userSpaceOnUse"
       id="clipPath731">
      <path
         d="M 0,0 H 2551.18 V 2787.57 H 0 Z"
         id="path729" />
    </clipPath>
    <clipPath
       clipPathUnits="userSpaceOnUse"
       id="clipPath749">
      <path
         d="m 1523.33,1862.89 c -0.08,0 -0.18,0 -0.26,0 -8.45,0.01 -16.76,0.54 -24.98,1.37 -5.3,4.69 -11.83,9 -19.62,13.7 -0.03,0.01 -0.05,0.03 -0.07,0.04 0,0 0,0 0,0 -11.73,7.04 -50.5,21.18 -97.98,31.37 -20.1,15 -37.27,33.02 -50.47,53.36 6.62,-3.11 13.7,-4.81 21.05,-4.84 0.01,0 0.01,0 0.02,0 0.05,0 0.11,0 0.16,0 v 0 0 c 1.46,0 2.9,0.07 4.33,0.2 41.13,-12.72 86.5,-21.04 138.07,-21.04 67.09,0 144.68,14.09 237,50.93 -32.26,-71.51 -109.71,-122.64 -200.67,-125 -0.01,0 0,0 -0.01,0 -0.08,0 -0.16,-0.01 -0.24,-0.01 -0.03,0 -0.04,0 -0.06,0 -0.08,0 -0.16,-0.01 -0.24,-0.01 h -0.01 c -0.17,0 -0.32,0 -0.49,-0.01 -0.02,0 -0.04,0 -0.06,0 -0.07,0 -0.14,0 -0.21,0 -0.04,0 -0.06,0 -0.1,0 -0.06,0 -0.14,-0.01 -0.2,-0.01 -0.04,0 -0.09,0 -0.13,0 -0.09,0 -0.18,-0.01 -0.27,-0.01 -0.07,0 -0.12,0 -0.19,0 -0.05,0 -0.11,0 -0.16,0 -0.05,0 -0.11,0 -0.16,0 -0.06,0 -0.11,-0.01 -0.16,-0.01 -0.06,0 -0.13,0 -0.19,0 -0.04,0 -0.08,0 -0.13,0 -0.1,-0.01 -0.19,-0.01 -0.29,-0.01 -0.05,0 -0.09,0 -0.14,0 -0.06,0 -0.12,0 -0.18,0 -0.05,0 -0.11,0 -0.15,0 -0.07,0 -0.13,0 -0.2,0 -0.04,0 -0.08,0 -0.12,0 -0.1,-0.01 -0.21,-0.01 -0.31,-0.01 -0.03,0 -0.05,0 -0.08,0 -0.08,0 -0.16,0 -0.25,0 -0.04,0 -0.07,0 -0.11,0 -0.07,0 -0.15,0 -0.22,0 -0.04,0 -0.08,0 -0.11,0 -0.11,-0.01 -0.22,-0.01 -0.32,-0.01 -0.01,0 -0.03,0 -0.03,0 -0.1,0 -0.2,0 -0.29,0 -0.04,0 -0.07,0 -0.11,0 -0.08,0 -0.16,0 -0.23,0 -0.04,0 -0.07,0 -0.11,0 -0.1,0 -0.21,0 -0.32,0"
         id="path747" />
    </clipPath>
    <clipPath
       clipPathUnits="userSpaceOnUse"
       id="clipPath761">
      <path
         d="m 1523.33,1862.89 c -0.09,0 -0.17,0 -0.26,0 0.08,0 0.18,0 0.26,0 0.11,0 0.22,0 0.32,0 -0.1,0 -0.21,0 -0.32,0 m 0.43,0 c 0.07,0 0.15,0 0.23,0 -0.08,0 -0.16,0 -0.23,0 m 0.34,0 c 0.09,0 0.19,0 0.29,0 -0.1,0 -0.2,0 -0.29,0 m 0.32,0 c 0.1,0 0.21,0 0.32,0.01 -0.11,-0.01 -0.22,-0.01 -0.32,-0.01 m 0.43,0.01 c 0.07,0 0.15,0 0.22,0 -0.07,0 -0.15,0 -0.22,0 m 0.33,0 c 0.09,0 0.17,0 0.25,0 -0.08,0 -0.17,0 -0.25,0 m 0.33,0 c 0.1,0 0.21,0 0.31,0.01 -0.1,-0.01 -0.21,-0.01 -0.31,-0.01 m 0.43,0.01 c 0.07,0 0.13,0 0.2,0 -0.07,0 -0.13,0 -0.2,0 m 0.35,0 c 0.06,0 0.12,0 0.18,0 -0.06,0 -0.12,0 -0.18,0 m 0.32,0 c 0.1,0 0.19,0 0.29,0.01 -0.09,-0.01 -0.2,-0.01 -0.29,-0.01 m 0.42,0.01 c 0.06,0 0.13,0 0.19,0 -0.06,0 -0.12,0 -0.19,0 m 0.35,0.01 c 0.05,0 0.11,0 0.16,0 -0.06,0 -0.11,0 -0.16,0 m 0.32,0 c 0.07,0 0.12,0 0.19,0 -0.06,0 -0.13,0 -0.19,0 m 0.46,0.01 c 0.04,0 0.09,0 0.13,0 -0.05,0 -0.08,0 -0.13,0 m 0.33,0.01 c 0.04,0 0.06,0 0.1,0 -0.03,0 -0.07,0 -0.1,0 m 0.31,0 c 0.02,0 0.04,0 0.06,0 -0.02,0 -0.04,0 -0.06,0 m 0.55,0.01 h 0.01 -0.01 m 0.25,0.01 c 0.02,0 0.03,0 0.06,0 -0.03,0 -0.04,0 -0.06,0 m 0.3,0.01 c 0.01,0 0,0 0.01,0 h -0.01"
         id="path759" />
    </clipPath>
    <clipPath
       clipPathUnits="userSpaceOnUse"
       id="clipPath773">
      <path
         d="m 1351.18,1957.89 c 1.36,0 2.69,0.18 4.02,0.29 0.11,-0.03 0.21,-0.06 0.31,-0.09 -1.43,-0.13 -2.87,-0.2 -4.33,-0.2 m 0,0 c -0.05,0 -0.11,0 -0.16,0 0.05,0 0.11,0 0.16,0 m -0.18,0 c -7.35,0.03 -14.43,1.73 -21.05,4.84 -0.02,0.04 -0.04,0.07 -0.07,0.11 6.65,-3.14 13.73,-4.92 21.12,-4.95"
         id="path771" />
    </clipPath>
    <clipPath
       clipPathUnits="userSpaceOnUse"
       id="clipPath785">
      <path
         d="m 1498.09,1864.26 c -0.03,0 -0.06,0.01 -0.09,0.01 -5.3,4.68 -11.76,9 -19.53,13.69 -0.03,0.01 -0.05,0.03 -0.07,0.04 0.02,-0.01 0.04,-0.03 0.07,-0.04 7.79,-4.7 14.32,-9.01 19.62,-13.7 M 1478.4,1878 c -11.72,7.04 -50.49,21.11 -97.9,31.31 -0.03,0.02 -0.05,0.04 -0.08,0.06 47.48,-10.19 86.25,-24.33 97.98,-31.37"
         id="path783" />
    </clipPath>
    <clipPath
       clipPathUnits="userSpaceOnUse"
       id="clipPath797">
      <path
         d="m 1043.34,1795.39 c -127.75,0 -231.68,129.16 -231.68,287.91 0,0.11 0,0.21 0,0.32 0,0.03 0,0.05 0,0.08 0,0.11 0,0.21 0,0.32 v 0.02 c 0,0.1 0,0.21 0,0.31 0,0.02 0,0.04 0,0.06 0,0.11 0.004,0.22 0.004,0.33 v 0.01 c 0,0.12 0,0.23 0,0.35 v 0.01 c 0.305,60.92 15.957,117.36 42.32,163.78 2.227,-126.62 39.95,-282.34 206.516,-382.91 -8.36,-7.25 -13.41,-15.95 -16.17,-27.62 0,0 0,0 0,0 -0.01,-0.05 -0.02,-0.09 -0.03,-0.13 0,0 -0.01,-0.01 -0.01,-0.01 -0.01,-0.05 -0.02,-0.09 -0.03,-0.14 -0.01,-0.05 -0.02,-0.1 -0.03,-0.16 -0.01,-0.01 -0.01,-0.01 -0.01,-0.02 -3.33,-14.58 -0.95,-29.77 6.28,-42.26 -2.39,-0.09 -4.76,-0.25 -7.16,-0.25 v 0"
         id="path795" />
    </clipPath>
    <clipPath
       clipPathUnits="userSpaceOnUse"
       id="clipPath809">
      <path
         d="m 1043.34,1795.39 c -127.75,0 -231.68,129.16 -231.68,287.91 v 0 c 0,-158.75 103.93,-287.91 231.68,-287.91 v 0 0 m -231.68,288.23 c 0,0.02 0,0.06 0,0.08 0,-0.03 0,-0.05 0,-0.08 m 0,0.4 c 0,0 0,0.01 0,0.02 v -0.02 m 0,0.33 c 0,0.02 0,0.04 0,0.06 0,-0.02 0,-0.04 0,-0.06 m 0.004,0.39 c 0,0.01 0,0.01 0,0.01 v -0.01 m 0,0.36 c 0,0 0,0.01 0,0.01 v -0.01"
         id="path807" />
    </clipPath>
    <clipPath
       clipPathUnits="userSpaceOnUse"
       id="clipPath821">
      <path
         d="m 1050.5,1795.64 c -7.23,12.49 -9.61,27.68 -6.28,42.26 -3.34,-14.59 -0.89,-29.76 6.35,-42.26 -0.02,0 -0.05,0 -0.07,0 m -6.27,42.28 c 0.01,0.06 0.02,0.11 0.03,0.16 0.01,0.05 0.02,0.09 0.03,0.14 -0.01,-0.05 -0.02,-0.09 -0.03,-0.14 -0.01,-0.05 -0.02,-0.1 -0.03,-0.16 m 0.07,0.31 c 0.01,0.04 0.02,0.08 0.03,0.13 -0.01,-0.05 -0.02,-0.09 -0.03,-0.13 m 0.03,0.13 c 2.76,11.67 7.81,20.37 16.16,27.62 0.01,0 0.01,0 0.01,0 -8.35,-7.25 -13.41,-15.95 -16.17,-27.62"
         id="path819" />
    </clipPath>
  </defs>
  <g
     inkscape:label="Camada 1"
     inkscape:groupmode="layer"
     id="layer1"
     transform="translate(-18.554703,-77.954988)">
    <g
       id="g641"
       transform="matrix(0.17439965,0,0,-0.17439965,-118.62221,368.00537)">
      <g
         id="g643"
         clip-path="url(#clipPath647)">
        <path
           d="m 1672.24,1628.46 c -7.78,-30.8 -10.33,-66.81 -20.13,-95.57 -64.78,24.54 -137.34,54.84 -221.31,49.05 -81.96,-5.66 -162.25,-18.31 -230.12,-38.99 -29.19,-8.9 -59.15,-23.36 -89.28,-35.2 -29.1,-11.47 -58.69,-24.38 -84.25,-38.99 -10.64,-6.09 -20.32,-15.29 -31.435,-22.64 -29.52,-19.52 -64.231,-49.5 -85.504,-75.44 -20.383,-24.86 -41.07,-56.9 -54.074,-90.54 -6.699,-17.34 -16.485,-33.43 -21.371,-51.55 -14.184,-52.55 -10.313,-116.79 8.797,-165.99 25.636,-65.991 67.058,-99.741 118.199,-140.838 23.488,-18.864 49.458,-32.883 77.968,-44 58.71,-22.922 126.09,-42.551 198.68,-45.282 71.32,-2.66 147.43,11.661 212.51,32.7 87.62,28.34 153.96,60.609 207.48,118.191 13.58,14.617 29.95,27.909 38.98,42.759 6.5,10.7 10.36,25 17.6,37.73 13.8,24.27 23.41,46.68 30.19,80.48 8.18,40.79 10.01,79.95 -5.04,120.72 -4.34,11.81 -10.54,24.59 -16.34,35.21 -29.44,53.82 -74.47,90.54 -133.29,119.45 -17.26,3.7 -32.55,9.36 -45.27,17.61 0.46,30.12 4.11,57.09 8.8,82.98 27.39,-3.82 50.57,-17.12 71.67,-30.17 39.99,-24.76 75.65,-55.46 103.12,-93.06 5.79,-7.92 9.83,-18.39 16.35,-27.66 6.57,-9.35 10.74,-18.8 15.07,-28.92 8.55,-19.84 19.49,-41.15 25.16,-61.62 17.33,-62.43 5.26,-129.4 -11.31,-181.08 -17.27,-53.8 -46.32,-97.66 -72.94,-133.288 C 1640.66,883.621 1548.34,839.43 1448.4,803.57 1396.95,785.109 1345.48,770.762 1276.13,768.359 1160.75,764.371 1054.39,791.168 980.629,835 c -30.758,18.27 -59.246,42.898 -85.512,69.16 -18.109,18.121 -38.047,35.231 -50.297,52.809 -19.5,28.011 -40.328,65.461 -49.039,105.631 -18.379,84.78 -8.468,186.57 22.637,251.5 15.023,31.37 32.668,62.62 50.297,86.76 96.289,131.82 246.855,211.76 435.075,248.98 116.82,23.1 270.04,16.18 368.45,-21.38"
           style="fill:#231f20;fill-opacity:1;fill-rule:evenodd;stroke:none"
           id="path649" />
        <path
           d="m 1491.16,1402.11 c 10.9,-18.71 47.42,-38.8 60.35,-60.35 12.25,-20.41 1.98,-42.82 -27.65,-38.98 -23.26,14.89 -37.62,38.66 -55.34,59.1 -23.39,-22.29 -30.49,-60.88 -56.59,-80.47 -15.74,-1.92 -25.15,2.51 -30.17,11.31 -1.42,28.8 14.14,43.94 25.14,62.87 7.72,13.27 16.74,24.59 22.65,38.98 -2.31,16.35 -28.1,28.75 -41.51,44.01 -5.06,5.77 -13.05,18.25 -12.57,26.41 0.58,9.77 9.53,20.2 20.12,21.37 15.43,1.73 26.19,-14.97 35.21,-22.64 12.23,-10.36 21.25,-17.53 28.92,-28.91 12.72,9.01 24.09,36.6 38.98,51.55 10.05,10.09 37.69,16.48 41.51,-5.02 3.23,-18.35 -15.69,-30.82 -23.9,-40.24 -10.34,-11.86 -16.77,-27.57 -25.15,-38.99"
           style="fill:#231f20;fill-opacity:1;fill-rule:evenodd;stroke:none"
           id="path651" />
        <path
           d="m 1366.67,1257.51 c -28.64,-7.97 -43.09,8.78 -54.08,22.63 -3.9,-4.47 -4.58,-12.18 -10.05,-15.08 -9.23,0 -18.45,0 -27.67,0 -13.15,6.12 -20.93,17.62 -27.66,30.17 -0.89,48.26 2.09,92.64 1.26,140.84 4.61,17.84 37.32,17.17 44,3.78 5.9,-11.81 1.27,-42.42 1.27,-64.14 0,-24.62 -1.86,-46.76 3.77,-60.36 16.98,6.13 24.26,31.59 28.93,54.07 5.11,24.67 -9.24,96.49 28.92,86.77 25.07,-6.39 14.81,-72.62 16.34,-105.63 1.7,-36.49 5.66,-74.9 -5.03,-93.05"
           style="fill:#231f20;fill-opacity:1;fill-rule:evenodd;stroke:none"
           id="path653" />
        <path
           d="m 952.965,1403.37 c 11.281,13.35 46.269,10.99 54.065,-3.77 9.12,-17.24 -0.73,-54.89 -2.51,-76.7 -4.3,-52.63 -7.543,-78.94 -7.543,-139.58 0,-20.6 1.546,-47.86 -5.028,-56.59 -4.836,-6.42 -22.828,-9.71 -30.187,-1.25 -7.699,8.85 -5.024,49 -6.282,66.64 -5,69.82 -0.812,149.42 -2.515,211.25"
           style="fill:#231f20;fill-opacity:1;fill-rule:evenodd;stroke:none"
           id="path655" />
        <path
           d="m 1161.7,1384.51 c 3.55,4.42 4.53,11.4 10.06,13.84 53.02,11.35 47.21,-35.1 51.56,-75.45 4.03,-37.44 18.92,-81.68 12.57,-113.17 -31.35,-16.23 -43.1,14.77 -46.52,41.49 -4.32,33.67 -5.59,75.3 -21.38,90.54 -29.34,-26.41 -21.11,-90.39 -26.41,-140.84 -7.22,-5.05 -29.13,-15.28 -37.72,-2.52 -4.48,6.67 -2.52,31.73 -2.52,49.04 0,36.42 0,64.52 0,103.12 0,18.39 -3.05,40.63 1.26,50.3 6.37,14.27 30.05,7.8 33.96,6.29 11.53,-4.5 13.02,-11.49 25.14,-22.64"
           style="fill:#231f20;fill-opacity:1;fill-rule:evenodd;stroke:none"
           id="path657" />
        <path
           d="m 1049.79,1392.06 c 36.21,10.53 34.19,-39.97 11.31,-44.02 -27.48,-4.86 -40.68,35.47 -11.31,44.02"
           style="fill:#231f20;fill-opacity:1;fill-rule:evenodd;stroke:none"
           id="path659" />
        <path
           d="m 1081.23,1321.63 c -1.47,-57.62 -4.99,-113.2 -11.32,-165.98 -9.89,-8.9 -32.63,-6.76 -37.73,6.29 -2.49,6.38 -3.18,25.26 -3.77,32.69 -1.33,16.8 0,43.8 0,67.9 0,23.69 -2.77,55.81 2.52,64.14 8.47,13.36 44.7,10.53 50.3,-5.04"
           style="fill:#231f20;fill-opacity:1;fill-rule:evenodd;stroke:none"
           id="path661" />
        <path
           d="m 1489.9,1071.4 c 8.05,4.91 19.64,8.08 22.64,18.88 4.21,15.16 -3.1,36.93 0,55.32 -20.08,-9.96 -38.19,-48.78 -22.64,-74.2 z m 32.7,213.77 c 13.48,-0.76 30.51,2.02 40.23,-2.51 10.73,-13.85 0.39,-45.05 -1.25,-65.39 -2.43,-29.91 -0.89,-73.5 -2.53,-108.14 -0.81,-17.4 4.67,-94.25 -7.54,-103.11 -20.79,-15.122 -40.17,14.36 -37.72,35.21 -13.19,-14.65 -40.99,-35.03 -61.62,-15.1 -2.88,2.8 -7.54,10.21 -8.8,13.83 -17.5,50.53 12.67,133.5 45.27,150.91 8,0.79 15.05,2.56 22.65,3.76 16.79,21.9 -10.87,70.77 11.31,90.54"
           style="fill:#231f20;fill-opacity:1;fill-rule:evenodd;stroke:none"
           id="path663" />
        <path
           d="m 1645.83,1195.89 c -10.82,12.7 -27.83,-11.08 -23.9,-25.15 14.53,-2.88 22.09,11.2 23.9,25.15 z m 36.46,-60.35 c 22.15,-30.93 -25.14,-73.26 -57.85,-72.94 -24.19,0.24 -48.38,26.15 -54.07,46.53 -6.36,22.8 0.67,55.58 7.56,74.19 6.24,16.91 30.07,59.52 47.77,62.86 26.26,4.99 47.35,-10.18 56.59,-31.43 2.01,-35.17 -5.69,-56.79 -28.93,-69.15 -16.05,-8.57 -43.82,-11.51 -38.97,-33.96 4.19,-19.39 23.08,-1.48 30.17,6.29 10.76,11.76 12.53,20.7 37.73,17.61"
           style="fill:#231f20;fill-opacity:1;fill-rule:evenodd;stroke:none"
           id="path665" />
        <path
           d="m 1406.9,1227.33 c 38.21,12.37 39.12,-41.25 12.57,-44.01 -25.88,-2.69 -37.22,33.1 -12.57,44.01"
           style="fill:#231f20;fill-opacity:1;fill-rule:evenodd;stroke:none"
           id="path667" />
        <path
           d="m 1367.93,1042.48 c 4.9,-33.49 -8.37,-43.851 -23.9,-62.871 -9.68,-11.871 -16.78,-25.097 -28.91,-27.668 -13.63,-2.89 -34.95,7.27 -35.22,20.118 -0.17,8.992 14.98,25.191 20.13,31.441 7.25,8.85 21.68,17.66 22.64,28.91 2.23,26.9 -43.88,37.02 -46.54,62.88 -3.93,38.25 37.95,72.61 61.62,84.25 23.07,11.36 33.32,-21 28.92,-35.2 -1.6,-5.18 -8.18,-14.45 -13.84,-20.12 -10.69,-10.74 -27.28,-12.02 -27.66,-27.67 -0.28,-11.44 15.78,-19.29 22.64,-26.4 9.66,-10.02 14.42,-17.07 20.12,-27.67"
           style="fill:#231f20;fill-opacity:1;fill-rule:evenodd;stroke:none"
           id="path669" />
        <path
           d="m 1420.73,998.469 c -13.14,-8.188 -28.08,0.179 -35.2,8.801 -6.71,17.91 -1.55,57.49 -3.77,94.31 -1.45,23.94 -10.31,64.98 8.8,70.41 13.03,3.7 29.35,0.81 36.46,-7.54 10.78,-12.64 1.31,-38.64 0,-56.58 -2.71,-37.35 4.42,-82.53 -6.29,-109.401"
           style="fill:#231f20;fill-opacity:1;fill-rule:evenodd;stroke:none"
           id="path671" />
        <path
           d="m 1092.54,1146.85 c 35.3,10.08 34.96,-39.83 11.32,-44.01 -25.79,-4.57 -41.65,35.35 -11.32,44.01"
           style="fill:#231f20;fill-opacity:1;fill-rule:evenodd;stroke:none"
           id="path673" />
        <path
           d="m 1201.94,1107.87 c 3.55,4.43 4.53,11.41 10.06,13.83 58.46,14.74 50.53,-57.29 55.33,-98.09 4.29,-36.419 16.78,-64.989 8.8,-90.52 -31.35,-16.219 -43.1,14.769 -46.53,41.48 -4.31,33.68 -5.58,75.29 -21.37,90.54 -10.12,-10.49 -18.92,-30.46 -22.64,-50.29 -4.57,-24.449 5.93,-54.992 -10.05,-70.41 -46.38,-9.18 -33.96,52.18 -33.96,101.84 0,24.17 -4.89,64.2 1.26,77.97 6.16,13.78 27.45,8.82 33.95,6.28 11.69,-4.56 14.15,-12.72 25.15,-22.63"
           style="fill:#231f20;fill-opacity:1;fill-rule:evenodd;stroke:none"
           id="path675" />
        <path
           d="m 1126.49,1080.21 c -2.12,-57.82 -3.8,-116.081 -12.57,-167.249 -10.76,-8.281 -28.48,-0.871 -35.21,6.289 -6.54,27.52 -5.03,61.031 -5.03,101.86 0,20.81 -3.59,54.51 2.52,64.13 8.31,13.12 44.71,10.45 50.29,-5.03"
           style="fill:#231f20;fill-opacity:1;fill-rule:evenodd;stroke:none"
           id="path677" />
      </g>
    </g>
  </g>
</svg>
