<?xml version="1.0" encoding="UTF-8" standalone="no"?>
<svg
   xmlns:dc="http://purl.org/dc/elements/1.1/"
   xmlns:cc="http://creativecommons.org/ns#"
   xmlns:rdf="http://www.w3.org/1999/02/22-rdf-syntax-ns#"
   xmlns:svg="http://www.w3.org/2000/svg"
   xmlns="http://www.w3.org/2000/svg"
   xmlns:sodipodi="http://sodipodi.sourceforge.net/DTD/sodipodi-0.dtd"
   xmlns:inkscape="http://www.inkscape.org/namespaces/inkscape"
   id="Layer_1"
   data-name="Layer 1"
   viewBox="0 0 254.06 400"
   version="1.1"
   sodipodi:docname="ubuntu.svg"
   width="254.06"
   height="400"
   inkscape:version="1.0.2 (e86c870879, 2021-01-15)">
  <metadata
     id="metadata2157">
    <rdf:RDF>
      <cc:Work
         rdf:about="">
        <dc:format>image/svg+xml</dc:format>
        <dc:type
           rdf:resource="http://purl.org/dc/dcmitype/StillImage" />
        <dc:title></dc:title>
      </cc:Work>
    </rdf:RDF>
  </metadata>
  <sodipodi:namedview
     pagecolor="#ffffff"
     bordercolor="#666666"
     borderopacity="1"
     objecttolerance="10"
     gridtolerance="10"
     guidetolerance="10"
     inkscape:pageopacity="0"
     inkscape:pageshadow="2"
     inkscape:window-width="1703"
     inkscape:window-height="1282"
     id="namedview2155"
     showgrid="false"
     inkscape:zoom="1.1190143"
     inkscape:cx="556.73999"
     inkscape:cy="200"
     inkscape:window-x="0"
     inkscape:window-y="0"
     inkscape:window-maximized="0"
     inkscape:current-layer="Layer_1" />
  <defs
     id="defs2100">
    <style
       id="style2098">
      .cls-1 {
        fill: none;
      }

      .cls-2 {
        fill: #e95420;
      }

      .cls-3 {
        fill: #fff;
      }
    </style>
  </defs>
  <g
     id="g2152">
    <rect
       class="cls-2"
       width="254.06"
       height="400"
       id="rect2136"
       x="0"
       y="0" />
    <rect
       class="cls-1"
       x="30.25"
       y="169.38"
       width="193.57001"
       height="193.57001"
       id="rect2138" />
    <circle
       class="cls-3"
       cx="58.09"
       cy="255.92"
       r="26.299999"
       id="circle2140" />
    <circle
       class="cls-3"
       cx="167.63"
       cy="198.25"
       r="26.299999"
       id="circle2142" />
    <path
       class="cls-3"
       d="M 117.41,323.62 C 98.46,319.56 82.63,307.46 73.73,290.3 c -7.01,3.19 -14.9,4.16 -22.49,2.76 10.77,26.45 33.61,45.66 61.65,51.67 6.15,1.32 12.42,1.96 18.68,1.92 -4.83,-6.35 -7.52,-14.01 -7.7,-21.99 -2.17,-0.24 -4.33,-0.59 -6.45,-1.05 z"
       id="path2144" />
    <circle
       class="cls-3"
       cx="161.71001"
       cy="323.76001"
       r="26.299999"
       id="circle2146" />
    <path
       class="cls-3"
       d="m 198.31,314.1 c 8.18,-10.31 13.94,-22.5 16.71,-35.45 4.84,-22.59 0.32,-46.29 -12.4,-65.51 -3.03,7.14 -8.17,13.17 -14.79,17.32 7.1,13.38 9.26,28.82 6.08,43.67 -1.56,7.27 -4.31,14.12 -8.18,20.38 6.19,5.08 10.56,11.91 12.59,19.6 z"
       id="path2148" />
    <path
       class="cls-3"
       d="m 56.06,218.2 c 0.67,-0.04 1.34,-0.05 2,-0.05 2.66,0 5.31,0.28 7.94,0.85 4.29,0.92 8.32,2.54 12.01,4.84 11.84,-17.03 30.95,-27.25 51.65,-27.63 0.11,-1.99 0.38,-3.97 0.79,-5.92 1.21,-5.63 3.67,-10.9 7.19,-15.41 -33.08,-2.62 -65.22,14.45 -81.59,43.33 z"
       id="path2150" />
  </g>
</svg>
